<svg xmlns="http://www.w3.org/2000/svg" data-name="Layer 1" viewBox="0 0 100 125" x="0px" y="0px"><title>polygon-pokemons</title><polygon points="13.6 38.57 12.95 37.92 10.49 40.38 13.63 42.13 14.08 41.33 11.99 40.17 13.6 38.57"/><polygon points="60.62 41.09 61.44 41.49 62.91 38.57 58.75 38.22 58.67 39.13 61.48 39.37 60.62 41.09"/><polygon points="40.01 13.01 41.58 13.01 41.58 12.09 39.67 12.09 37.22 14.24 37.82 14.93 40.01 13.01"/><path d="M41,14.29,38.39,16.9l-1.74,4.94-.58,3.77,4.06,1.45-2-.72L37.52,25V23.58l2,1.74L41,25l1.16-.87,1.16-2L43,25,42,26.3l-1.91.76,4.35-1.74v-7l-1.74-3.48Zm-.29,4.94-1.45,1.45H38.1l-.29-.58L39,16.9l1.45-1.45.87.87Z"/><rect x="19.93" y="29.72" width="0.92" height="1.95" transform="translate(-11.57 12.36) rotate(-26.57)"/><rect x="24.97" y="31.4" width="1.86" height="0.92" transform="translate(-15.15 32.17) rotate(-51.32)"/><path d="M88.49,43.38V32.5L86,35.39l-.87.35L83.7,30.63v-4L81.33,30v2.26l-1.79,1.56-1.66-2.32-2.26,6.09,1.23,2.13,1.39,4.45-.57.94-1.78-.71.68,8.13h1.88a7.32,7.32,0,0,0-.17,1.28c0,.65,1.35,2,2.48,3l.22.19,1.28-.54-.19,3.08L78.67,66l-4.79,3.95L70,71l-4.28.29L61.27,70.2,60,68.94l-.86-4.55-2-6.7-2.09-6-.68-.39h.31l4.27-2.08,4.47-5,3-3-2.48-1.86,1.28-3.85-3.42.39L51.38,39.38H49.86L49,33.47l.29-9.35-.6-5.9-2.07-6.5L40.65,6l-6-1.5-4.44.59-7,3.9L19.65,16.2l-1.13,4.24L16,23l-2.2,5.26,1.84,4.6L19,38.26l-8.6-3.76V38.7L8.07,40l2.11,2.46,6.39,7,6,4v6.24l2,9.06L20,73.79l-1.58,3.72.32,3.17,3,3.19-.54-.09-6.59,2.71-4.31,2.87,2.56.73-.33,1.3h2.92l-.58.87h7.27l10.16-.58,3.63-1.3V87.74L34.57,84.9,37.71,81l5.32.8,2.13,4L44,89.44l.32,2.87.84.84h0l1.3,1.3,3.39,1.18V94.17l.35-.12,2,1.33,1-2h.26l.69,2.08,2.79-2.45,2-1.32-.33-2.32-1.64-2.81,2.26-3,3.57.54h4.94L71.9,83l4.46-2.66,4.46-5,2.71-5.4,1.74-6.1.26-7.34,2.08-2.19v-3l2-3.75,2.65-7.94Zm-65.2-31.7v.87l-1.45,3.19h-.58l-.1-.51,1.78-3.55Zm-3.76,8.53.13-.25.87-.29.58-.58.58-.87-.58,1.45-.58.87H19.45ZM17.2,48.78l-6.34-6.92L9.48,40.25l1.78-1V35.89l8.6,3.76,3.44,2.58,2,.54-2.62,9.68Zm20.5-7.55L40,43.3l5.47,7.49,3.15,9.73V70L46.4,76.78l-3.27,4.08-.14,0L37.64,80l-2.79-1.11L28.29,73.5l-2.83-4.8-2-9.12V53.25L26.23,43l2.56.51,3.93-.61ZM12.46,89,15,87.3l.43.49-2.32,1.44Zm1.25,1.45.16-.62,2.55-1.58,1,.39.16.65-1.39,1.16Zm3,.77L18.14,90l1.42.61-.18.73H16.6ZM35,87.85v1.89l-2.83,1-10.07.58h-1.8l.31-1.26-2.18-.93L18.16,88l-1.67-.67-.06.16-.49-.55,5.37-2.2,2.94.49-4.58-4.94-.26-2.63,1.38-3.31L25,69.63,27.54,74l6.78,5.64,2.45,1-3.28,4.11ZM49,94.36l-1.91-.64-.94-.94a10.28,10.28,0,0,0,.5-1.27l.53-.36,1.63.7.6,1.51-.41.14ZM51.85,94l-1.41-.94V91.87l.19-.76h.91l.89.89v.86Zm2.72-.13-.32-1,.49-2.2,1-.21.48.16.2,1.58-.08.05Zm3.12-4.27.24,1.66-.62.41L57.1,90l-1.26-.42L54,90l-.57,2.55h0v-.89l-1.43-1.43h-2l-.32,1.3-.12-.31-2.44-1-1.21.8,0,.15c-.11.34-.26.72-.37,1l-.21-.21-.26-2.36,1.19-3.87L43.87,81.4l3.3-4.12,2.4-7.11,0-9.73-3.22-10-5.65-7.75L38.6,40.8l2.62-1.43,3-2.67L43.6,36l-2.86,2.58-3.11,1.7L32.51,42l-3.69.57L26,42l-2.22-.56-3.34-2.51L18.28,35.4l3.59,4.26,5.73,1.81,4.44-.3,5.36-2.06L43,35l2.14-3-.37-.26-.27-.37-3.1,2.25-7.47.86L28.19,35.6l-5.06-.28-7-3.79-1.32-3.3,1.93-4.68,2.49-2.49.17.05h1.45L22,19.37l.87-2.9L24,12.69v-2l-.61.06.52-1L30.41,6l4.18-.56,5.6,1.4,5.63,5.35,2,6.18.58,5.75-.29,9.37.81,5.69L44.53,40.3h6.92L62,36.81l1.9-.21-1,3.12L65,41.34,62.72,43.6l-4.29,4.87-3.89,1.94H50.89l3.38,1.93,2,5.63,2,6.63.86,4.58-.23,2.45-4-.92-3.3.9.24.88,3.08-.84,3.44.79L60,75.91l-.56,4.17-1.28,3.4-2.31,3.07ZM17.92,33.55l4.86,2.62,5.42.34h.06l5.83-1.17,7.67-.88,1.08-.78-.42.6-5.41,4-5.1,2-4.2.28-5.31-1.68Zm66.46,30-1.47,5.16-3.3,5.07-5.23,4.94-6.39,2-5.52.29-2.29-.43.11-.28.62-4.59-1.24-2.7.27-2.89.85.85,4.84,1.21,4.52-.31,4.06-1.16,5.1-4.15,3.6-6.82L83.19,56h0l0-.75.67-.34.74.56-.07,2h0Zm2.32-9.69-1.11,1.17v0L84,53.82l-1.65.83,0,.71-1.17.5a11.2,11.2,0,0,1-2-2.08,9.45,9.45,0,0,1,.28-1.63l.14-.57h-2.2l-.48-5.81,1.13.45,1.18-2L77.7,39.35l.76-.38v2l1.45.29V43.9c0,.29,1.74-2.32,1.74-2.32l.58-3.77,1.16,2-.87,2.32-.29,3.19,1.16,3.19,1.74-4.06v3.19l1.74,2,.15.75L86.7,51Z"/><text x="0" y="115" fill="#000000" font-size="5px" font-weight="bold" font-family="'Helvetica Neue', Helvetica, Arial-Unicode, Arial, Sans-serif">Created by Gamze Genc Celik</text><text x="0" y="120" fill="#000000" font-size="5px" font-weight="bold" font-family="'Helvetica Neue', Helvetica, Arial-Unicode, Arial, Sans-serif">from the Noun Project</text></svg>