<svg xmlns="http://www.w3.org/2000/svg" xmlns:xlink="http://www.w3.org/1999/xlink" version="1.1" x="0px" y="0px" viewBox="0 0 584.361 1200.0925" enable-background="new 0 0 584.361 960.074" xml:space="preserve"><g><g><path d="M225.81,192.886l1.864,0.467l2.282,0.574l1.863,0.469l1.276,0.322l1.006,0.252l1.458,0.367    c0.424-0.987,0.862-1.965,1.313-2.932c1.681-3.607,3.543-7.097,5.582-10.449c1.155-1.896,2.368-3.752,3.631-5.564    c1.309-1.883,2.669-3.722,4.088-5.504c0.98-1.235,1.991-2.441,3.022-3.627c1.175-1.354,2.382-2.676,3.622-3.966    c0.896-0.935,1.811-1.849,2.739-2.749c1.102-1.068,2.224-2.117,3.37-3.137c0.841-0.75,1.697-1.481,2.561-2.203    c1.053-0.884,2.116-1.747,3.201-2.586c0.802-0.622,1.615-1.229,2.435-1.828c1.012-0.739,2.037-1.456,3.072-2.159    c0.773-0.525,1.553-1.042,2.339-1.546c0.985-0.633,1.976-1.254,2.979-1.854c0.749-0.449,1.503-0.887,2.262-1.315    c0.955-0.54,1.922-1.062,2.893-1.573c0.729-0.385,1.461-0.758,2.197-1.125c0.935-0.467,1.879-0.917,2.827-1.359    c0.71-0.326,1.424-0.647,2.143-0.963c0.917-0.401,1.839-0.787,2.769-1.164c0.694-0.281,1.393-0.555,2.093-0.822    c0.901-0.344,1.807-0.672,2.718-0.992c0.682-0.241,1.365-0.472,2.051-0.699c0.886-0.29,1.776-0.566,2.67-0.838    c0.67-0.199,1.339-0.396,2.013-0.586c0.874-0.243,1.75-0.475,2.63-0.697c0.658-0.166,1.316-0.329,1.978-0.484    c0.861-0.199,1.724-0.389,2.591-0.566c0.646-0.135,1.295-0.258,1.944-0.379c0.85-0.158,1.702-0.309,2.557-0.447    c0.638-0.105,1.276-0.199,1.916-0.292c0.839-0.122,1.681-0.231,2.524-0.333c0.628-0.076,1.257-0.151,1.889-0.217    c0.831-0.085,1.661-0.16,2.494-0.226c0.62-0.049,1.241-0.089,1.863-0.128c0.82-0.05,1.642-0.092,2.463-0.121    c0.612-0.023,1.225-0.041,1.838-0.055c0.813-0.018,1.625-0.025,2.439-0.025c0.606,0.002,1.211,0.002,1.819,0.013    c0.802,0.015,1.605,0.041,2.409,0.073c0.599,0.025,1.198,0.061,1.798,0.094c0.793,0.047,1.589,0.102,2.384,0.166    c0.593,0.046,1.186,0.094,1.78,0.15c0.786,0.075,1.573,0.16,2.362,0.253c0.584,0.071,1.17,0.151,1.757,0.231    c0.778,0.104,1.558,0.219,2.337,0.345c0.582,0.091,1.162,0.18,1.742,0.282c0.771,0.136,1.543,0.277,2.315,0.428    c0.575,0.112,1.149,0.238,1.723,0.36c0.764,0.165,1.528,0.335,2.292,0.518c0.511,0.122,1.022,0.233,1.533,0.362    c0.06,0.017,0.117,0.035,0.176,0.049c0.761,0.193,1.513,0.408,2.268,0.615c0.565,0.156,1.134,0.304,1.695,0.469    c0.754,0.221,1.5,0.461,2.247,0.699c0.561,0.176,1.122,0.349,1.68,0.535c0.747,0.249,1.486,0.518,2.227,0.784    c0.555,0.197,1.112,0.394,1.663,0.601c0.742,0.279,1.475,0.573,2.207,0.87c0.551,0.222,1.102,0.44,1.648,0.672    c0.733,0.31,1.46,0.629,2.187,0.953c0.546,0.245,1.09,0.491,1.631,0.745c0.726,0.342,1.448,0.688,2.166,1.043    c0.542,0.27,1.079,0.543,1.616,0.82c0.718,0.372,1.436,0.744,2.145,1.133c0.537,0.292,1.067,0.598,1.599,0.898    c0.71,0.405,1.424,0.804,2.125,1.225c0.533,0.318,1.055,0.654,1.583,0.982c0.703,0.438,1.41,0.871,2.103,1.322    c0.529,0.346,1.045,0.71,1.568,1.066c0.353,0.239,0.71,0.475,1.061,0.719c0.324,0.313,0.647,0.627,0.963,0.948    c0.497,0.505,0.984,1.015,1.462,1.534c0.656,0.707,1.292,1.43,1.913,2.164c0.484,0.573,0.958,1.152,1.422,1.741    c0.636,0.806,1.25,1.626,1.847,2.458c0.47,0.654,0.93,1.317,1.375,1.988c0.612,0.922,1.204,1.857,1.772,2.809    c0.453,0.756,0.889,1.524,1.314,2.3c0.583,1.063,1.146,2.138,1.68,3.234c0.43,0.886,0.84,1.785,1.24,2.692    c0.549,1.248,1.068,2.514,1.558,3.799c0.401,1.054,0.783,2.115,1.144,3.193c0.503,1.496,0.97,3.013,1.398,4.552    c0.359,1.291,0.692,2.599,1.002,3.919c0.434,1.854,0.827,3.732,1.167,5.641c0.295,1.664,0.553,3.346,0.779,5.047    c0.328,2.47,0.582,4.98,0.767,7.523c0.173,2.373,0.288,4.773,0.344,7.203c0.089,3.907,0.028,7.883-0.167,11.912    c-0.247,5.06-0.708,10.202-1.363,15.4c-0.081,0.652-0.166,1.307-0.255,1.961l2.125,0.535l1.863,0.469l2.281,0.573l1.863,0.468    l2.28,0.572l1.864,0.47l2.281,0.574l1.865,0.468l2.28,0.574l1.865,0.468l2.281,0.573l1.753,0.441l0.11,0.027l2.282,0.574    l1.862,0.468l2.282,0.573l1.864,0.469l2.282,0.572l1.863,0.469l0.55,0.139c0.181-1.73,0.338-3.459,0.445-5.189    c0.219-3.57,0.273-7.138,0.179-10.695c-0.081-3.041-0.282-6.071-0.589-9.086c-0.2-1.963-0.44-3.92-0.735-5.867    c-0.321-2.109-0.704-4.209-1.133-6.297c-0.306-1.484-0.632-2.963-0.994-4.436c-0.417-1.702-0.877-3.395-1.368-5.078    c-0.357-1.227-0.734-2.443-1.13-3.658c-0.475-1.455-0.979-2.904-1.51-4.344c-0.389-1.059-0.794-2.109-1.213-3.157    c-0.515-1.286-1.05-2.562-1.609-3.831c-0.413-0.934-0.837-1.863-1.273-2.79c-0.544-1.152-1.105-2.298-1.686-3.435    c-0.43-0.844-0.866-1.684-1.317-2.516c-0.565-1.051-1.146-2.092-1.743-3.124c-0.443-0.767-0.892-1.532-1.353-2.29    c-0.584-0.961-1.185-1.91-1.797-2.857c-0.452-0.698-0.917-1.393-1.384-2.084c-0.29-0.428-0.574-0.859-0.869-1.283    c-0.318-0.453-0.646-0.902-0.971-1.352c-0.464-0.643-0.935-1.281-1.411-1.914c-0.616-0.818-1.242-1.629-1.878-2.432    c-0.472-0.596-0.949-1.189-1.433-1.774c-0.627-0.765-1.265-1.519-1.912-2.269c-0.48-0.553-0.96-1.109-1.45-1.654    c-0.64-0.712-1.287-1.417-1.942-2.115c-0.485-0.514-0.979-1.021-1.472-1.529c-0.649-0.664-1.306-1.32-1.97-1.971    c-0.491-0.482-0.985-0.959-1.485-1.432c-0.658-0.624-1.322-1.241-1.995-1.852c-0.498-0.449-0.994-0.904-1.5-1.346    c-0.665-0.584-1.34-1.156-2.02-1.727c-0.5-0.422-1.009-0.832-1.517-1.244c-0.674-0.547-1.355-1.087-2.042-1.619    c-0.507-0.393-1.014-0.788-1.528-1.175c-0.683-0.513-1.37-1.019-2.063-1.517c-0.51-0.367-1.029-0.723-1.545-1.082    c-0.689-0.479-1.384-0.951-2.084-1.415c-0.517-0.343-1.032-0.688-1.555-1.024c-0.696-0.449-1.398-0.887-2.104-1.322    c-0.52-0.318-1.046-0.627-1.572-0.939c-0.703-0.418-1.41-0.828-2.123-1.232c-0.526-0.296-1.05-0.595-1.58-0.885    c-0.709-0.387-1.426-0.763-2.146-1.137c-0.528-0.275-1.061-0.545-1.594-0.813c-0.717-0.36-1.436-0.716-2.163-1.062    c-0.532-0.256-1.07-0.501-1.607-0.748c-0.723-0.334-1.451-0.656-2.183-0.975c-0.538-0.234-1.075-0.473-1.618-0.699    c-0.729-0.305-1.464-0.601-2.202-0.893c-0.541-0.215-1.087-0.421-1.633-0.627c-0.736-0.279-1.474-0.555-2.219-0.818    c-0.546-0.196-1.094-0.388-1.646-0.574c-0.742-0.254-1.489-0.498-2.237-0.735c-0.553-0.177-1.103-0.356-1.659-0.526    c-0.748-0.228-1.502-0.444-2.257-0.66c-0.555-0.155-1.113-0.305-1.673-0.457c-0.628-0.168-1.256-0.342-1.892-0.5    c-0.127-0.032-0.254-0.059-0.382-0.091c-0.563-0.142-1.125-0.271-1.688-0.403c-0.765-0.178-1.529-0.346-2.294-0.51    c-0.567-0.12-1.133-0.248-1.698-0.359c-0.772-0.152-1.544-0.291-2.315-0.43c-0.572-0.102-1.144-0.199-1.716-0.293    c-0.778-0.128-1.555-0.254-2.333-0.365c-0.577-0.084-1.154-0.154-1.732-0.23c-0.785-0.104-1.57-0.196-2.354-0.281    c-0.582-0.065-1.164-0.133-1.745-0.189c-0.793-0.075-1.585-0.139-2.376-0.197c-0.589-0.043-1.177-0.082-1.767-0.117    c-0.799-0.048-1.599-0.094-2.396-0.127c-0.595-0.023-1.188-0.041-1.782-0.057c-0.807-0.022-1.614-0.034-2.42-0.039    c-0.6-0.002-1.201-0.008-1.799-0.002c-0.816,0.007-1.63,0.021-2.443,0.043c-0.61,0.02-1.216,0.046-1.823,0.074    c-0.825,0.037-1.647,0.079-2.468,0.135c-0.614,0.039-1.229,0.075-1.84,0.123c-0.834,0.068-1.666,0.146-2.497,0.232    c-0.623,0.063-1.246,0.133-1.867,0.206c-0.843,0.098-1.684,0.205-2.522,0.319c-0.63,0.087-1.261,0.174-1.888,0.27    c-0.853,0.132-1.704,0.277-2.553,0.426c-0.64,0.111-1.279,0.234-1.916,0.357c-0.863,0.166-1.724,0.34-2.582,0.527    c-0.649,0.139-1.298,0.277-1.943,0.428c-0.874,0.202-1.747,0.416-2.616,0.638c-0.661,0.17-1.317,0.351-1.976,0.532    c-0.888,0.24-1.772,0.496-2.652,0.76c-0.671,0.2-1.339,0.406-2.007,0.616c-0.899,0.288-1.798,0.585-2.691,0.89    c-0.681,0.236-1.364,0.47-2.042,0.717c-0.915,0.332-1.827,0.675-2.733,1.029c-0.699,0.274-1.393,0.557-2.085,0.844    c-0.932,0.385-1.86,0.779-2.783,1.188c-0.713,0.315-1.422,0.639-2.129,0.967c-0.95,0.442-1.897,0.897-2.837,1.361    c-0.729,0.361-1.456,0.734-2.179,1.111c-0.973,0.508-1.938,1.026-2.897,1.559c-0.75,0.418-1.496,0.846-2.238,1.279    c-0.998,0.581-1.988,1.178-2.969,1.787c-0.775,0.482-1.544,0.975-2.308,1.475c-1.027,0.672-2.047,1.354-3.052,2.056    c-0.803,0.562-1.601,1.132-2.39,1.712c-1.068,0.785-2.12,1.59-3.163,2.41c-0.84,0.658-1.671,1.33-2.493,2.013    c-1.112,0.921-2.212,1.86-3.292,2.822c-0.888,0.791-1.765,1.597-2.629,2.413c-1.183,1.118-2.34,2.26-3.479,3.425    c-0.956,0.979-1.898,1.976-2.822,2.988c-1.283,1.405-2.535,2.841-3.752,4.31c-1.073,1.291-2.118,2.609-3.138,3.948    c-1.479,1.942-2.902,3.937-4.267,5.976c-1.331,1.986-2.606,4.018-3.823,6.094c-2.194,3.738-4.207,7.618-6.01,11.635    c-0.515,1.146-1.008,2.307-1.49,3.475l0.397,0.1L225.81,192.886z"/><path d="M214.56,251.659c0.205,1.901,0.45,3.795,0.743,5.68c0.233,1.496,0.501,2.985,0.789,4.469    c0.311,1.6,0.65,3.191,1.024,4.775c0.307,1.299,0.638,2.594,0.988,3.881c0.379,1.402,0.777,2.799,1.208,4.182    c0.359,1.16,0.74,2.311,1.135,3.455c0.428,1.253,0.879,2.495,1.348,3.73c0.402,1.055,0.814,2.104,1.243,3.146    c0.47,1.138,0.952,2.271,1.454,3.392c0.433,0.966,0.881,1.927,1.338,2.88c0.499,1.042,1.015,2.075,1.544,3.1    c0.46,0.895,0.932,1.782,1.413,2.665c0.527,0.961,1.066,1.916,1.618,2.865c0.484,0.832,0.977,1.657,1.48,2.479    c0.548,0.895,1.11,1.78,1.681,2.66c0.505,0.775,1.019,1.547,1.541,2.311c0.568,0.834,1.147,1.66,1.735,2.479    c0.523,0.729,1.054,1.449,1.594,2.164c0.586,0.777,1.182,1.549,1.786,2.313c0.541,0.684,1.086,1.359,1.642,2.031    c0.602,0.728,1.212,1.449,1.831,2.164c0.556,0.64,1.117,1.277,1.686,1.906c0.615,0.682,1.24,1.359,1.873,2.025    c0.57,0.604,1.143,1.203,1.725,1.793c0.63,0.639,1.268,1.269,1.912,1.895c0.582,0.565,1.172,1.121,1.766,1.674    c0.642,0.6,1.292,1.189,1.948,1.775c0.215,0.192,0.427,0.389,0.643,0.578c0.159,0.139,0.317,0.277,0.476,0.414    c0.211,0.185,0.427,0.367,0.641,0.549c0.012,0.01,0.026,0.021,0.04,0.034H256.4c0.657,0.555,1.318,1.104,1.985,1.646    c0.608,0.493,1.22,0.981,1.838,1.462c0.667,0.52,1.338,1.033,2.016,1.543c0.619,0.459,1.241,0.918,1.868,1.366    c0.677,0.485,1.358,0.964,2.046,1.438c0.628,0.433,1.261,0.856,1.897,1.276c0.686,0.453,1.377,0.899,2.074,1.34    c0.637,0.401,1.278,0.798,1.924,1.189c0.697,0.42,1.396,0.836,2.101,1.242c0.647,0.373,1.297,0.739,1.951,1.102    c0.705,0.391,1.414,0.773,2.128,1.149c0.655,0.345,1.315,0.685,1.977,1.019c0.714,0.36,1.431,0.713,2.153,1.057    c0.663,0.318,1.331,0.631,2.001,0.938c0.722,0.33,1.447,0.652,2.177,0.967c0.67,0.293,1.345,0.578,2.023,0.857    c0.729,0.302,1.464,0.594,2.2,0.88c0.679,0.265,1.362,0.524,2.046,0.778c0.738,0.272,1.479,0.537,2.223,0.795    c0.686,0.24,1.375,0.472,2.066,0.699c0.745,0.244,1.494,0.48,2.244,0.709c0.694,0.214,1.389,0.42,2.088,0.621    c0.752,0.215,1.508,0.424,2.266,0.626c0.574,0.153,1.15,0.307,1.727,0.452c0.126,0.031,0.254,0.059,0.382,0.092    c0.761,0.188,1.523,0.368,2.286,0.541c0.708,0.162,1.418,0.313,2.128,0.463c0.77,0.159,1.537,0.314,2.306,0.461    c0.715,0.136,1.431,0.271,2.146,0.394c0.775,0.134,1.552,0.253,2.328,0.369c0.724,0.109,1.444,0.209,2.167,0.304    c0.782,0.104,1.565,0.205,2.347,0.292c0.728,0.08,1.455,0.163,2.182,0.233c0.79,0.073,1.581,0.137,2.37,0.194    c0.735,0.056,1.469,0.1,2.202,0.142c0.797,0.046,1.593,0.085,2.389,0.113c0.739,0.027,1.479,0.057,2.218,0.068    c0.805,0.015,1.608,0.018,2.412,0.018c0.747-0.003,1.491-0.016,2.236-0.029c0.812-0.017,1.623-0.041,2.433-0.073    c0.751-0.03,1.501-0.063,2.25-0.106c0.821-0.049,1.638-0.104,2.454-0.168c0.759-0.061,1.516-0.133,2.272-0.209    c0.828-0.08,1.652-0.173,2.475-0.272c0.765-0.089,1.527-0.187,2.289-0.292c0.833-0.116,1.666-0.238,2.496-0.372    c0.77-0.124,1.539-0.25,2.304-0.387c0.844-0.152,1.683-0.317,2.522-0.487c0.776-0.156,1.549-0.322,2.322-0.494    c0.851-0.191,1.699-0.389,2.544-0.596c0.781-0.192,1.563-0.391,2.338-0.598c0.859-0.229,1.716-0.466,2.57-0.713    c0.787-0.229,1.573-0.461,2.355-0.706c0.869-0.271,1.735-0.55,2.595-0.837c0.797-0.269,1.588-0.549,2.378-0.831    c0.878-0.317,1.752-0.644,2.624-0.979c0.802-0.311,1.6-0.63,2.395-0.955c0.889-0.365,1.773-0.74,2.653-1.126    c0.81-0.354,1.615-0.718,2.416-1.09c0.901-0.419,1.796-0.848,2.686-1.286c0.817-0.403,1.63-0.816,2.437-1.237    c0.914-0.477,1.819-0.964,2.72-1.464c0.826-0.457,1.647-0.926,2.463-1.402c0.927-0.541,1.847-1.094,2.759-1.661    c0.834-0.518,1.664-1.046,2.488-1.585c0.942-0.618,1.877-1.244,2.802-1.885c0.847-0.588,1.69-1.187,2.521-1.797    c0.963-0.705,1.913-1.424,2.854-2.156c0.863-0.672,1.715-1.355,2.562-2.053c0.984-0.808,1.955-1.635,2.916-2.478    c0.878-0.769,1.747-1.549,2.604-2.344c1.013-0.94,2.01-1.896,2.992-2.87c0.904-0.896,1.792-1.813,2.668-2.74    c1.048-1.109,2.081-2.231,3.089-3.382c0.938-1.069,1.853-2.164,2.756-3.269c1.105-1.357,2.187-2.736,3.237-4.145    c0.985-1.32,1.949-2.662,2.883-4.026c1.204-1.761,2.363-3.553,3.478-5.384c1.094-1.795,2.142-3.627,3.147-5.49    c1.436-2.664,2.779-5.396,4.023-8.189c0.502-1.128,0.985-2.266,1.453-3.413l-0.137-0.032l-0.602-0.152l-2.28-0.574l-1.925-0.483    l-2.283-0.573l-1.923-0.482l-1.485-0.375l-0.797-0.199l-1.667-0.42c-0.169,0.389-0.336,0.781-0.509,1.169    c-1.251,2.813-2.612,5.557-4.079,8.221c-0.999,1.814-2.051,3.592-3.146,5.335c-1.111,1.768-2.266,3.499-3.469,5.189    c-0.928,1.303-1.884,2.577-2.865,3.831c-1.043,1.335-2.115,2.641-3.216,3.92c-0.892,1.036-1.799,2.057-2.728,3.058    c-1.002,1.078-2.024,2.134-3.067,3.17c-0.865,0.857-1.744,1.701-2.635,2.527c-0.975,0.903-1.962,1.788-2.966,2.653    c-0.848,0.731-1.704,1.452-2.573,2.155c-0.948,0.77-1.912,1.517-2.885,2.251c-0.832,0.63-1.673,1.247-2.523,1.853    c-0.934,0.662-1.873,1.316-2.826,1.951c-0.82,0.546-1.649,1.078-2.482,1.602c-0.915,0.573-1.84,1.13-2.771,1.676    c-0.81,0.477-1.628,0.94-2.45,1.396c-0.901,0.497-1.809,0.982-2.725,1.455c-0.803,0.415-1.609,0.82-2.423,1.213    c-0.889,0.431-1.784,0.854-2.685,1.26c-0.793,0.359-1.592,0.709-2.396,1.049c-0.878,0.373-1.76,0.736-2.649,1.086    c-0.786,0.307-1.577,0.605-2.371,0.898c-0.868,0.316-1.739,0.623-2.617,0.92c-0.778,0.263-1.561,0.516-2.346,0.762    c-0.859,0.268-1.719,0.525-2.586,0.773c-0.771,0.221-1.546,0.43-2.324,0.633c-0.85,0.223-1.703,0.434-2.557,0.636    c-0.766,0.18-1.535,0.351-2.306,0.516c-0.84,0.178-1.683,0.345-2.529,0.505c-0.759,0.142-1.521,0.275-2.285,0.402    c-0.831,0.139-1.665,0.265-2.502,0.384c-0.753,0.106-1.508,0.206-2.265,0.297c-0.825,0.099-1.649,0.188-2.479,0.27    c-0.747,0.07-1.495,0.138-2.245,0.194c-0.816,0.063-1.634,0.114-2.453,0.158c-0.742,0.039-1.483,0.072-2.227,0.098    c-0.807,0.025-1.617,0.038-2.427,0.045c-0.734,0.008-1.47,0.002-2.206-0.006c-0.8-0.01-1.6-0.029-2.404-0.055    c-0.728-0.025-1.458-0.058-2.187-0.098c-0.793-0.043-1.586-0.096-2.38-0.156c-0.722-0.054-1.444-0.112-2.168-0.183    c-0.784-0.077-1.569-0.159-2.357-0.253c-0.715-0.086-1.43-0.182-2.146-0.281c-0.777-0.109-1.554-0.229-2.333-0.355    c-0.709-0.115-1.417-0.236-2.125-0.365c-0.771-0.139-1.542-0.287-2.312-0.445c-0.702-0.143-1.403-0.289-2.106-0.445    c-0.763-0.174-1.525-0.355-2.286-0.544c-0.124-0.03-0.248-0.057-0.371-0.089c-0.574-0.145-1.14-0.311-1.712-0.463    c-0.755-0.204-1.515-0.399-2.266-0.619c-0.691-0.2-1.373-0.424-2.059-0.641c-0.75-0.233-1.499-0.467-2.242-0.717    c-0.683-0.229-1.36-0.473-2.037-0.717c-0.742-0.267-1.481-0.539-2.216-0.822c-0.674-0.258-1.347-0.521-2.017-0.791    c-0.734-0.299-1.461-0.612-2.188-0.926c-0.665-0.29-1.334-0.572-1.994-0.871c-0.727-0.333-1.442-0.686-2.159-1.033    c-0.659-0.318-1.319-0.632-1.969-0.965c-0.717-0.365-1.426-0.744-2.135-1.127c-0.65-0.348-1.295-0.703-1.938-1.066    c-0.708-0.398-1.412-0.799-2.109-1.215c-0.641-0.381-1.274-0.777-1.907-1.172c-0.696-0.435-1.395-0.864-2.081-1.316    c-0.633-0.414-1.254-0.846-1.876-1.272c-0.297-0.204-0.6-0.399-0.896-0.608c-0.365-0.356-0.729-0.716-1.084-1.081    c-0.587-0.603-1.157-1.218-1.716-1.843c-0.636-0.705-1.25-1.426-1.852-2.157c-0.562-0.683-1.111-1.378-1.644-2.083    c-0.608-0.806-1.198-1.621-1.767-2.454c-0.537-0.78-1.051-1.575-1.554-2.378c-0.576-0.921-1.135-1.854-1.668-2.805    c-0.502-0.894-0.981-1.803-1.446-2.723c-0.537-1.063-1.056-2.139-1.545-3.235c-0.46-1.033-0.896-2.084-1.313-3.144    c-0.491-1.243-0.956-2.504-1.39-3.781c-0.408-1.203-0.795-2.42-1.155-3.654c-0.429-1.476-0.825-2.971-1.185-4.486    c-0.344-1.439-0.652-2.895-0.935-4.367c-0.345-1.799-0.643-3.622-0.902-5.466c-0.247-1.772-0.454-3.563-0.624-5.374    c-0.216-2.287-0.373-4.605-0.47-6.953c-0.098-2.305-0.141-4.637-0.129-6.994c0.014-3.196,0.128-6.439,0.331-9.717    c0.216-3.489,0.534-7.021,0.945-10.582c0.245-2.115,0.524-4.243,0.835-6.378l-1.348-0.339l-1.925-0.483l-2.28-0.573l-1.925-0.486    l-2.28-0.571l-1.926-0.485l-2.281-0.572l-1.926-0.484l-2.281-0.573l-1.923-0.484l-2.282-0.574l-1.924-0.483l-1.186-0.297    l-1.097-0.275l-1.923-0.484l-2.283-0.572l-1.924-0.484l-2.281-0.574l-1.925-0.483l-1.099-0.277    c-0.196,1.805-0.352,3.604-0.466,5.403c-0.162,2.563-0.243,5.116-0.242,7.66c-0.001,2.462,0.077,4.91,0.225,7.349    C214.215,248.013,214.365,249.841,214.56,251.659z"/><path d="M217.909,218.761l1.912,0.479l2.28,0.573l1.911,0.48l2.282,0.574l1.752,0.441l0.159,0.039l2.281,0.573l1.912,0.479    l2.281,0.574l1.91,0.48l2.281,0.574l1.912,0.481l2.281,0.571l1.911,0.481l2.28,0.571l1.912,0.481l2.28,0.574l1.911,0.479    l0.459,0.116l1.821,0.459l1.912,0.481l2.28,0.571l1.912,0.481l2.28,0.571l1.913,0.481l2.28,0.574l1.913,0.481l2.28,0.573    l1.913,0.48l2.278,0.572l1.914,0.48l2.279,0.574l1.912,0.48l2.28,0.574l1.913,0.48l2.28,0.572l1.913,0.48l2.279,0.574l1.539,0.385    c-0.002,0.476,0.004,0.945,0.02,1.419c0.069,2.147,0.314,4.277,0.724,6.376c0.015,0.084,0.033,0.165,0.049,0.248    c0.254,1.262,0.568,2.51,0.944,3.742c0.399,1.314,0.865,2.61,1.399,3.88c0.402,0.958,0.845,1.897,1.322,2.823    c0.51,0.992,1.064,1.967,1.661,2.918c0.47,0.753,0.97,1.492,1.494,2.215c0.575,0.799,1.18,1.578,1.817,2.338    c0.304,0.361,0.613,0.721,0.933,1.074c0.222,0.247,0.452,0.487,0.682,0.727c0.623,0.66,1.268,1.293,1.932,1.905    c0.555,0.511,1.119,1.013,1.7,1.491c0.659,0.541,1.335,1.058,2.025,1.555c0.583,0.419,1.174,0.823,1.779,1.209    c0.688,0.443,1.388,0.864,2.103,1.263c0.605,0.338,1.221,0.659,1.845,0.964c0.713,0.352,1.436,0.684,2.172,0.992    c0.627,0.262,1.262,0.508,1.904,0.74c0.738,0.266,1.482,0.513,2.237,0.736c0.547,0.161,1.096,0.316,1.65,0.455    c0.104,0.026,0.207,0.044,0.311,0.07c0.766,0.186,1.533,0.344,2.299,0.484c0.672,0.124,1.343,0.229,2.012,0.314    c0.79,0.104,1.578,0.182,2.364,0.236c0.689,0.049,1.377,0.08,2.065,0.094c0.812,0.015,1.621,0.008,2.426-0.027    c0.71-0.029,1.418-0.076,2.121-0.144c0.837-0.08,1.67-0.183,2.496-0.315c0.734-0.119,1.459-0.26,2.183-0.416    c0.868-0.189,1.726-0.408,2.576-0.654c0.757-0.219,1.507-0.454,2.25-0.715c0.902-0.318,1.792-0.671,2.668-1.053    c0.791-0.344,1.57-0.713,2.336-1.106c0.951-0.487,1.882-1.012,2.791-1.573c0.835-0.516,1.652-1.057,2.448-1.633    c1.028-0.742,2.021-1.535,2.979-2.374c0.918-0.806,1.802-1.657,2.647-2.548c0.611-0.643,1.207-1.301,1.775-1.986    c0.553-0.664,1.08-1.355,1.59-2.058c1.069-1.474,2.046-3.022,2.916-4.651l0.192,0.051l2.28,0.571l1.913,0.482l2.279,0.573    l1.913,0.48l2.279,0.572l1.914,0.481l2.278,0.573l1.913,0.48l2.279,0.573l1.912,0.481l2.281,0.572l1.912,0.48l2.28,0.573    l1.913,0.481l2.28,0.572l1.912,0.481l2.281,0.571l1.911,0.483l2.28,0.571l1.912,0.481l2.28,0.574l1.911,0.479l2.281,0.574    l1.912,0.479l2.28,0.573l1.913,0.483l2.28,0.572l1.911,0.48l2.281,0.574l1.91,0.479l2.282,0.575l1.509,0.377l0.403,0.102    l2.031,0.512l0.25,0.063l1.911,0.48l2.282,0.572l1.909,0.482l2.283,0.572l0.971,0.245l0.939,0.235l0.022,0.006    c1.026-3.045,1.945-6.15,2.742-9.32c0.794-3.159,1.444-6.332,1.979-9.512l-0.948-0.239l-0.039-0.009l-1.875-0.473l-2.283-0.572    l-1.876-0.473l-2.281-0.574l-1.876-0.472l-1.81-0.454l-0.471-0.117l-1.877-0.473l-2.28-0.574l-1.878-0.473l-2.28-0.574    l-1.877-0.472l-2.281-0.571l-1.877-0.473l-2.28-0.572l-1.878-0.475l-2.28-0.571l-1.877-0.472l-1.672-0.421l-0.607-0.153    l-1.878-0.471l-2.279-0.574l-1.879-0.472l-2.279-0.573l-1.879-0.473l-2.279-0.572l-1.879-0.473l-2.28-0.574l-1.877-0.472    l-2.28-0.571l-1.879-0.473l-2.28-0.574l-1.878-0.471l-2.279-0.576l-1.879-0.472l-2.28-0.571l-1.878-0.473l-2.279-0.572    l-1.878-0.475l-2.142-0.535c0,0,0,0,0.001-0.002c0-0.202-0.003-0.404-0.006-0.607c-0.025-2.061-0.209-4.11-0.547-6.131    c-0.073-0.436-0.154-0.869-0.241-1.303c-0.26-1.289-0.583-2.566-0.968-3.826c-0.345-1.123-0.739-2.232-1.182-3.324    c-0.476-1.172-1.008-2.326-1.596-3.455c-0.43-0.827-0.887-1.641-1.377-2.439c-0.554-0.906-1.151-1.791-1.781-2.655    c-0.475-0.654-0.972-1.294-1.49-1.924c-0.382-0.462-0.771-0.921-1.174-1.368c-0.238-0.266-0.483-0.52-0.727-0.776    c-0.509-0.536-1.033-1.058-1.569-1.563c-0.647-0.607-1.308-1.198-1.991-1.76c-0.534-0.44-1.08-0.859-1.634-1.27    c-0.675-0.5-1.363-0.98-2.066-1.437c-0.555-0.358-1.119-0.698-1.69-1.03c-0.7-0.402-1.41-0.791-2.135-1.154    c-0.572-0.286-1.154-0.555-1.74-0.814c-0.724-0.318-1.454-0.622-2.197-0.899c-0.589-0.22-1.187-0.423-1.788-0.614    c-0.744-0.236-1.496-0.458-2.258-0.654c-0.079-0.018-0.157-0.044-0.235-0.063c-0.531-0.134-1.065-0.249-1.599-0.36    c-0.771-0.162-1.542-0.307-2.316-0.424c-0.627-0.094-1.256-0.171-1.882-0.236c-0.794-0.08-1.589-0.132-2.382-0.166    c-0.646-0.026-1.291-0.039-1.935-0.036c-0.82,0.005-1.636,0.04-2.451,0.097c-0.668,0.045-1.333,0.107-1.996,0.188    c-0.845,0.1-1.688,0.227-2.524,0.38c-0.692,0.128-1.381,0.272-2.065,0.437c-0.878,0.211-1.751,0.453-2.616,0.725    c-0.724,0.227-1.441,0.479-2.154,0.747c-0.919,0.348-1.831,0.726-2.728,1.142c-0.764,0.355-1.518,0.732-2.264,1.137    c-0.509,0.277-1.018,0.562-1.519,0.858c-0.464,0.277-0.917,0.569-1.366,0.864c-0.833,0.545-1.642,1.117-2.427,1.716    c-1.096,0.836-2.143,1.726-3.138,2.659c-0.965,0.906-1.88,1.855-2.746,2.848c-0.222,0.254-0.447,0.506-0.663,0.764    c-1.15,1.389-2.199,2.857-3.152,4.391c-0.471,0.759-0.924,1.531-1.345,2.32l-1.201-0.301l-2.279-0.572l-1.878-0.473l-2.28-0.573    l-1.88-0.472l-2.278-0.574l-1.878-0.473l-2.28-0.572l-1.879-0.472l-2.28-0.574l-1.877-0.472l-2.281-0.572l-1.878-0.473    l-2.28-0.574l-1.878-0.472l-2.28-0.574l-1.877-0.471l-2.28-0.573l-1.712-0.432l-0.167-0.041l-2.28-0.574l-1.877-0.472    l-2.279-0.571l-1.879-0.472l-2.28-0.573l-1.877-0.475l-2.281-0.571l-1.879-0.472l-2.28-0.574l-1.877-0.472l-2.281-0.573    l-1.876-0.472l-2.282-0.574l-0.998-0.251l-0.878-0.221l-1.555-0.392l-0.727-0.183l-1.876-0.472l-2.281-0.573l-1.876-0.472    l-2.282-0.574l-0.565-0.141l-0.302-0.077c-1.076,3.16-2.038,6.385-2.866,9.68c-0.756,3.009-1.393,6.021-1.913,9.029    c-0.005,0.035-0.013,0.07-0.02,0.105l0.368,0.092L217.909,218.761z M309.074,231.669c0.714-2.84,1.869-5.492,3.397-7.892    c0.233-0.366,0.475-0.728,0.725-1.081l0.001-0.001c0.863-1.219,1.824-2.371,2.885-3.431c0.806-0.805,1.672-1.559,2.584-2.264    c0.256-0.195,0.513-0.39,0.775-0.576c0,0,0,0,0-0.002c0.607-0.434,1.232-0.852,1.881-1.24c0.095-0.057,0.191-0.107,0.287-0.161    c0.75-0.437,1.513-0.835,2.291-1.193c0.886-0.411,1.789-0.765,2.704-1.073c0.705-0.235,1.417-0.447,2.135-0.624    c0.844-0.206,1.695-0.372,2.553-0.493c0.671-0.098,1.346-0.164,2.023-0.207c0.81-0.053,1.622-0.068,2.436-0.047    c0.646,0.018,1.292,0.049,1.938,0.115c0.781,0.076,1.56,0.193,2.338,0.34c0.539,0.102,1.078,0.214,1.613,0.35    c0.085,0.02,0.165,0.049,0.247,0.07c0.764,0.2,1.511,0.438,2.248,0.701c0.606,0.216,1.201,0.452,1.788,0.71    c0.736,0.323,1.454,0.681,2.155,1.067c0.584,0.323,1.155,0.666,1.712,1.03c0.707,0.463,1.394,0.953,2.055,1.481    c0.559,0.445,1.101,0.91,1.624,1.402c0.532,0.501,1.047,1.019,1.54,1.564c0.134,0.147,0.255,0.304,0.386,0.455    c0.533,0.616,1.036,1.251,1.507,1.907c0.641,0.894,1.222,1.821,1.744,2.777c0.192,0.348,0.372,0.705,0.546,1.062    c0.275,0.563,0.531,1.129,0.765,1.705c0.58,1.426,1.032,2.898,1.358,4.398c0.17,0.785,0.316,1.576,0.416,2.377    c0.137,1.107,0.207,2.226,0.204,3.35c-0.004,2.169-0.269,4.353-0.812,6.508c-0.491,1.953-1.193,3.799-2.063,5.527    c-0.609,1.209-1.303,2.357-2.074,3.44c-0.363,0.511-0.741,1.012-1.138,1.493c-0.976,1.188-2.051,2.283-3.205,3.277    c-0.613,0.529-1.247,1.031-1.904,1.501l-0.001,0.001c-0.199,0.142-0.398,0.283-0.603,0.422c-0.904,0.612-1.849,1.167-2.822,1.665    c-0.752,0.387-1.521,0.737-2.306,1.049c-0.863,0.345-1.744,0.644-2.64,0.897c-0.72,0.203-1.449,0.381-2.186,0.523    c-0.827,0.162-1.666,0.285-2.511,0.366c-0.692,0.069-1.391,0.108-2.093,0.12c-0.796,0.016-1.599-0.01-2.404-0.066    c-0.669-0.047-1.338-0.117-2.011-0.217c-0.769-0.114-1.539-0.268-2.309-0.452c-0.099-0.022-0.198-0.042-0.297-0.067    c-0.552-0.139-1.093-0.303-1.632-0.475c-0.753-0.24-1.496-0.507-2.219-0.811c-0.628-0.262-1.245-0.549-1.849-0.859    c-0.725-0.371-1.426-0.784-2.115-1.217c-0.601-0.382-1.185-0.787-1.755-1.216c-0.691-0.519-1.359-1.072-2-1.659    c-0.567-0.521-1.118-1.062-1.641-1.633c-0.052-0.055-0.107-0.104-0.157-0.16c-0.604-0.67-1.161-1.372-1.689-2.092    c-0.531-0.721-1.027-1.464-1.479-2.227c-0.364-0.615-0.699-1.243-1.012-1.882c-0.208-0.425-0.406-0.854-0.591-1.289    c-0.465-1.093-0.857-2.216-1.172-3.357c-0.348-1.257-0.615-2.536-0.777-3.835c-0.075-0.615-0.126-1.234-0.16-1.857    C308.162,237.014,308.409,234.319,309.074,231.669z"/><path d="M316.558,243.56c0.323,1.115,0.745,2.195,1.259,3.229c0.417,0.838,0.891,1.644,1.424,2.411    c0.555,0.801,1.17,1.563,1.842,2.273c0.481,0.51,0.988,0.992,1.522,1.447c0,0.002,0.001,0,0.001,0    c0.042,0.039,0.084,0.076,0.128,0.113c0.644,0.539,1.329,1.033,2.046,1.486c0.576,0.365,1.176,0.701,1.796,1.007    c0.705,0.345,1.437,0.649,2.193,0.913c0.531,0.181,1.07,0.348,1.622,0.487c0.099,0.022,0.195,0.041,0.292,0.065    c0.775,0.182,1.551,0.314,2.323,0.4c0.676,0.074,1.351,0.113,2.02,0.118c0.829,0.003,1.65-0.049,2.46-0.151    c0.559-0.068,1.114-0.16,1.661-0.279c0.001,0,0.001,0,0.001,0c0.161-0.035,0.323-0.074,0.482-0.111    c0.898-0.219,1.775-0.499,2.626-0.842c0.796-0.316,1.569-0.689,2.315-1.111c1.028-0.576,2.003-1.25,2.911-2.01    c0.494-0.412,0.968-0.853,1.421-1.314c0.451-0.461,0.879-0.945,1.284-1.453c1.668-2.088,2.93-4.56,3.625-7.321    c0.723-2.876,0.759-5.763,0.211-8.487c-0.106-0.529-0.237-1.052-0.386-1.568c0-0.001,0-0.001,0-0.001    c-0.204-0.702-0.442-1.392-0.722-2.065c-0.455-1.09-1.011-2.134-1.655-3.123c-0.454-0.696-0.953-1.363-1.495-1.998    c-0.595-0.696-1.242-1.354-1.935-1.963c-0.081-0.071-0.159-0.141-0.24-0.21c-0.454-0.388-0.929-0.751-1.419-1.095    c-0.668-0.471-1.37-0.898-2.103-1.281c-0.573-0.301-1.165-0.574-1.776-0.818c-0.721-0.287-1.466-0.535-2.237-0.741    c-0.084-0.024-0.167-0.05-0.253-0.071c-0.542-0.137-1.084-0.243-1.626-0.33c-0.791-0.129-1.579-0.21-2.363-0.24    c-0.667-0.025-1.332-0.016-1.989,0.028c-0.848,0.056-1.686,0.167-2.508,0.331c-0.091,0.018-0.18,0.039-0.27,0.058    c-0.63,0.137-1.25,0.304-1.859,0.499c-0.931,0.302-1.836,0.672-2.709,1.109c-0.815,0.407-1.601,0.871-2.351,1.391    c-1.016,0.702-1.967,1.502-2.836,2.391c-0.095,0.096-0.19,0.193-0.283,0.293c-1.273,1.356-2.358,2.91-3.207,4.627    c-0.596,1.209-1.077,2.495-1.419,3.855c-0.315,1.253-0.498,2.512-0.561,3.758c-0.097,1.938,0.1,3.846,0.562,5.67    C316.438,243.146,316.499,243.353,316.558,243.56z M323.423,235.275c0.562-2.235,1.726-4.157,3.261-5.657    c0.746-0.729,1.578-1.359,2.481-1.87c0.454-0.259,0.927-0.485,1.413-0.683c0.424-0.171,0.856-0.324,1.299-0.446    c0.68-0.19,1.38-0.315,2.093-0.384c0.795-0.075,1.604-0.07,2.418,0.018c0.548,0.061,1.096,0.143,1.645,0.281    c0.089,0.023,0.171,0.056,0.26,0.08c0.776,0.213,1.515,0.496,2.21,0.844c0.611,0.307,1.188,0.662,1.729,1.059    c0.728,0.535,1.384,1.15,1.967,1.824c0.053,0.063,0.101,0.125,0.151,0.187h0c0.502,0.607,0.943,1.259,1.317,1.95    c0.713,1.313,1.184,2.757,1.37,4.265c0.177,1.434,0.11,2.917-0.264,4.403c-0.364,1.447-0.985,2.756-1.787,3.912    c-0.866,1.25-1.954,2.312-3.195,3.144c-0.684,0.458-1.412,0.846-2.175,1.155v0.002c-0.053,0.021-0.105,0.044-0.159,0.064    c-0.831,0.325-1.699,0.563-2.594,0.697c-0.677,0.1-1.369,0.138-2.066,0.121c-0.777-0.021-1.563-0.119-2.347-0.297    c-0.097-0.021-0.192-0.031-0.289-0.056c-0.557-0.141-1.085-0.329-1.603-0.54c-0.76-0.309-1.473-0.688-2.138-1.13    c-0.608-0.407-1.173-0.862-1.691-1.362c-0.314-0.306-0.607-0.627-0.885-0.96c-0.348-0.421-0.671-0.861-0.96-1.323    c-0.556-0.895-0.991-1.859-1.297-2.874C322.974,239.679,322.871,237.474,323.423,235.275z"/><path d="M143.724,401.131l72.697-65.556c3.981-3.59,4.298-9.727,0.708-13.708c-3.589-3.979-9.726-4.296-13.707-0.706    l-72.696,65.557c-3.981,3.59-4.298,9.725-0.71,13.707C133.606,404.405,139.743,404.72,143.724,401.131z"/><path d="M226.972,347.276l-39.169,35.321c-3.979,3.589-4.297,9.728-0.708,13.706c3.59,3.98,9.727,4.299,13.706,0.709    l39.169-35.322c3.981-3.59,4.298-9.727,0.709-13.707S230.953,343.687,226.972,347.276z"/><path d="M408.441,704.816c22.678,0,41.128-18.45,41.128-41.128s-18.45-41.128-41.128-41.128c-22.678,0-41.128,18.45-41.128,41.128    S385.764,704.816,408.441,704.816z M408.441,635.561c15.51,0,28.128,12.618,28.128,28.128s-12.618,28.128-28.128,28.128    s-28.128-12.618-28.128-28.128S392.932,635.561,408.441,635.561z"/><path d="M488.736,783.567c-0.734-1.325-3.013-4.408-8.317-4.408c-3.289,0-7.254,1.187-11.164,3.34    c-2.529,1.394-8.579,5.213-10.125,10.578c-0.648,2.251-0.418,4.55,0.648,6.476l41.34,74.584c0.734,1.326,3.013,4.408,8.318,4.408    c3.291,0,7.255-1.187,11.163-3.34c2.531-1.394,8.583-5.215,10.127-10.584c0.647-2.252,0.416-4.552-0.65-6.47L488.736,783.567z     M514.326,863.819c-1.313,0.723-2.433,1.158-3.281,1.41l-38.437-69.347c0.682-0.589,1.655-1.3,2.92-1.997    c1.314-0.724,2.435-1.159,3.282-1.411l38.437,69.347C516.565,862.41,515.592,863.122,514.326,863.819z"/><path d="M501.806,579.729c-22.678,0-41.128,18.45-41.128,41.129c0,22.678,18.45,41.127,41.128,41.127    c22.678,0,41.128-18.449,41.128-41.127C542.934,598.179,524.484,579.729,501.806,579.729z M501.806,648.984    c-15.51,0-28.128-12.618-28.128-28.127c0-15.511,12.618-28.129,28.128-28.129s28.128,12.618,28.128,28.129    C529.934,636.366,517.315,648.984,501.806,648.984z"/><path d="M76.609,464.472h372.958l0.236-0.018c32.567-2.368,59.467-15.85,75.742-37.957c0.566-0.768,1.114-1.546,1.654-2.335    l0.307-0.449c0.509-0.753,1.005-1.512,1.488-2.278l0.294-0.475c0.461-0.741,0.912-1.487,1.35-2.245l0.119-0.202    c0.45-0.781,0.882-1.57,1.312-2.375l0.318-0.6c0.399-0.765,0.789-1.532,1.162-2.303l0.305-0.642    c0.316-0.665,0.625-1.335,0.927-2.015l0.247-0.552c0.328-0.754,0.642-1.513,0.948-2.272c0.119-0.297,0.237-0.592,0.348-0.878    c0.288-0.735,0.566-1.476,0.831-2.214l0.328-0.939c0.188-0.54,0.369-1.081,0.547-1.629c0.134-0.412,0.267-0.826,0.396-1.243    c0.189-0.612,0.372-1.228,0.547-1.841c0.116-0.406,0.23-0.813,0.345-1.235c0.144-0.532,0.282-1.064,0.415-1.596    c0.148-0.589,0.291-1.181,0.432-1.788c0.085-0.372,0.169-0.744,0.249-1.11c0.17-0.776,0.329-1.56,0.48-2.343l0.187-0.982    c0.097-0.531,0.188-1.065,0.273-1.584l0.116-0.737c0.149-0.954,0.286-1.913,0.407-2.867l0.081-0.649    c0.217-1.807,0.388-3.639,0.51-5.468l-6.484-0.463l6.493,0.313c0.078-1.196,0.135-2.399,0.176-3.701l0.005-0.166    c0.051-1.759,0.059-3.554,0.025-5.344c0.018-0.197,0.031-0.435,0.031-0.699V107.78c0-16.701-13.587-30.288-30.288-30.288H76.609    c-16.701,0-30.288,13.587-30.288,30.288v326.403C46.321,450.885,59.908,464.472,76.609,464.472z M59.321,107.78    c0-9.532,7.755-17.288,17.288-17.288h435.816c9.533,0,17.288,7.756,17.288,17.288v260.507l-0.039,0.333l0.001,0.531    c0.04,1.71,0.035,3.428-0.014,5.104l-0.008,0.235c-0.033,1.061-0.083,2.115-0.147,3.113l-0.013,0.204    c-0.105,1.579-0.255,3.18-0.443,4.744l-0.072,0.571c-0.106,0.839-0.225,1.673-0.355,2.508l-0.096,0.613    c-0.076,0.463-0.155,0.925-0.238,1.383l-0.163,0.854c-0.13,0.676-0.267,1.35-0.416,2.026c-0.071,0.329-0.146,0.656-0.217,0.968    c-0.118,0.51-0.24,1.02-0.369,1.53c-0.117,0.464-0.236,0.925-0.356,1.371c-0.096,0.354-0.195,0.706-0.297,1.062    c-0.149,0.525-0.305,1.049-0.466,1.567c-0.111,0.36-0.227,0.718-0.341,1.071c-0.15,0.462-0.305,0.923-0.464,1.381l-0.282,0.812    c-0.226,0.63-0.462,1.255-0.709,1.888l-0.294,0.742c-0.261,0.648-0.527,1.295-0.803,1.927l-0.216,0.48    c-0.254,0.571-0.516,1.14-0.791,1.718l-0.254,0.536c-0.318,0.656-0.648,1.307-0.979,1.939l-0.279,0.525    c-0.358,0.671-0.723,1.339-1.125,2.035l-0.087,0.147c-0.368,0.636-0.749,1.265-1.142,1.897l-0.245,0.396    c-0.409,0.648-0.829,1.292-1.248,1.911l-0.281,0.409c-0.452,0.661-0.912,1.315-1.391,1.965    c-14.152,19.225-36.964,30.523-65.986,32.685H76.609c-9.533,0-17.288-7.755-17.288-17.288V107.78z"/><path d="M554.954,0H29.407C13.192,0,0,13.192,0,29.408v901.26c0,16.215,13.192,29.406,29.407,29.406h414.629l0.235-0.018    c24.106-1.753,46.046-7.382,65.21-16.73c20.012-9.762,36.524-23.359,49.078-40.414c16.993-23.083,25.91-51.932,25.796-83.451    l0.005-0.052V29.408C584.361,13.192,571.169,0,554.954,0z M571.361,818.88l-0.007,0.207l0,0.125    c0.161,29.236-7.666,54.805-23.264,75.993c-22.484,30.546-58.628,48.479-104.529,51.869H29.407    c-9.047,0-16.407-7.36-16.407-16.406V29.408C13,20.36,20.36,13,29.407,13h525.547c9.047,0,16.407,7.36,16.407,16.408V818.88z"/><path d="M176.766,637.029h-33.163v-33.162c0-10.201-8.299-18.5-18.5-18.5h-5.993c-10.201,0-18.5,8.299-18.5,18.5v33.162H67.449    c-10.201,0-18.5,8.299-18.5,18.5v5.994c0,10.201,8.299,18.5,18.5,18.5h33.162v33.161c0,10.201,8.299,18.5,18.5,18.5h5.993    c10.201,0,18.5-8.299,18.5-18.5v-33.161h33.163c10.201,0,18.5-8.299,18.5-18.5v-5.994    C195.266,645.328,186.967,637.029,176.766,637.029z M182.266,661.523c0,3.032-2.467,5.5-5.5,5.5h-46.163v46.161    c0,3.032-2.467,5.5-5.5,5.5h-5.993c-3.033,0-5.5-2.468-5.5-5.5v-46.161H67.449c-3.033,0-5.5-2.468-5.5-5.5v-5.994    c0-3.033,2.467-5.5,5.5-5.5h46.162v-46.162c0-3.032,2.467-5.5,5.5-5.5h5.993c3.033,0,5.5,2.468,5.5,5.5v46.162h46.163    c3.033,0,5.5,2.467,5.5,5.5V661.523z"/><path d="M404.986,812.702c-0.734-1.326-3.013-4.408-8.317-4.408c-3.289,0-7.254,1.186-11.164,3.34    c-2.529,1.394-8.578,5.213-10.125,10.578c-0.648,2.25-0.418,4.55,0.648,6.476l41.34,74.584c0.734,1.326,3.013,4.408,8.318,4.408    c3.291,0,7.255-1.187,11.163-3.34c2.531-1.394,8.583-5.215,10.127-10.585c0.647-2.251,0.416-4.551-0.65-6.469L404.986,812.702z     M430.576,892.954c-1.313,0.723-2.432,1.158-3.281,1.41l-38.437-69.347c0.682-0.589,1.655-1.3,2.92-1.997    c1.314-0.724,2.435-1.159,3.282-1.411l38.437,69.347C432.815,891.545,431.842,892.257,430.576,892.954z"/><path d="M447.361,798.135c-0.734-1.326-3.013-4.408-8.317-4.408c-3.289,0-7.254,1.186-11.164,3.34    c-2.529,1.394-8.579,5.213-10.125,10.578c-0.648,2.251-0.418,4.55,0.648,6.476l41.34,74.584c0.734,1.326,3.013,4.408,8.318,4.408    c3.291,0,7.255-1.187,11.163-3.34c2.531-1.394,8.583-5.215,10.128-10.585c0.647-2.251,0.415-4.551-0.651-6.469L447.361,798.135z     M472.951,878.387c-1.313,0.723-2.432,1.158-3.281,1.41l-38.437-69.347c0.682-0.589,1.655-1.3,2.92-1.997    c1.314-0.724,2.435-1.159,3.282-1.411l38.437,69.347C475.19,876.978,474.217,877.689,472.951,878.387z"/></g></g><text x="0" y="975.074" fill="#000000" font-size="5px" font-weight="bold" font-family="'Helvetica Neue', Helvetica, Arial-Unicode, Arial, Sans-serif">Created by Felix Brönnimann</text><text x="0" y="980.074" fill="#000000" font-size="5px" font-weight="bold" font-family="'Helvetica Neue', Helvetica, Arial-Unicode, Arial, Sans-serif">from the Noun Project</text></svg>