<svg xmlns="http://www.w3.org/2000/svg" xmlns:xlink="http://www.w3.org/1999/xlink" version="1.1" x="0px" y="0px" viewBox="0 0 100 125" style="enable-background:new 0 0 100 100;" xml:space="preserve"><style type="text/css">
	.st0{fill:none;stroke:#000000;stroke-width:6;stroke-miterlimit:10;}
	.st1{stroke:#000000;stroke-width:6;stroke-miterlimit:10;}
	.st2{fill:none;stroke:#000000;stroke-width:6;stroke-linejoin:bevel;stroke-miterlimit:10;}
</style><path d="M83.5,36.7L83.5,36.7l-0.8-1.9c0-0.1-0.1-0.2-0.1-0.2c0-0.1-0.1-0.2-0.1-0.2c-0.2-0.4-0.4-0.9-0.7-1.3  c0-0.1-0.1-0.1-0.1-0.2c-0.2-0.4-0.5-0.9-0.7-1.3c0-0.1-0.1-0.1-0.1-0.2c-0.3-0.5-0.6-0.9-0.9-1.3c0,0,0-0.1-0.1-0.1  c-2.6-3.8-5.9-7.1-9.7-9.7c0,0,0,0,0,0c-0.5-0.3-0.9-0.6-1.4-0.9c0,0-0.1,0-0.1-0.1c-0.5-0.3-0.9-0.5-1.4-0.8c0,0-0.1-0.1-0.1-0.1  c-0.5-0.2-0.9-0.5-1.4-0.7c0,0-0.1,0-0.1-0.1c-0.1,0-0.2-0.1-0.3-0.1l-1.9-0.9l-0.1,0.1C59.3,14.9,54.7,14,50,14  c-4.7,0-9.3,0.9-13.4,2.6l-0.1-0.1l-1.9,0.9c-0.1,0-0.2,0.1-0.3,0.1c0,0-0.1,0-0.1,0.1c-0.5,0.2-1,0.5-1.4,0.7c0,0-0.1,0-0.1,0.1  c-0.5,0.3-0.9,0.5-1.4,0.8c0,0,0,0-0.1,0C26.8,22,23,25.6,20.1,29.9c0,0,0,0,0,0c-0.3,0.5-0.6,0.9-0.9,1.4c0,0-0.1,0.1-0.1,0.1  c-0.3,0.4-0.5,0.9-0.8,1.3c0,0.1-0.1,0.1-0.1,0.2c-0.2,0.4-0.5,0.9-0.7,1.3c0,0.1-0.1,0.1-0.1,0.2c0,0.1-0.1,0.2-0.1,0.2l-0.9,1.9  l0.1,0.1c-1.7,4.2-2.6,8.7-2.6,13.4C13.9,70,30.1,86.2,50,86.2S86.1,70,86.1,50.1C86.1,45.4,85.2,40.8,83.5,36.7z M59.3,21.5  c-1.1,2.1-1.7,4.4-1.7,6.8c0,7.9,6.4,14.3,14.3,14.3c2.4,0,4.7-0.7,6.8-1.8c0.7,2,1.1,4.2,1.3,6.2H63.2c-1.4-6-6.8-10.6-13.2-10.6  S38.1,41,36.8,47H20c0.2-2,0.7-4.2,1.3-6.2c2.1,1.1,4.4,1.7,6.8,1.7c7.9,0,14.3-6.4,14.3-14.3c0-2.4-0.6-4.7-1.7-6.8  c2.9-1,6.1-1.5,9.3-1.5C53.2,20,56.4,20.5,59.3,21.5z M57.6,50.1c0,4.2-3.4,7.6-7.6,7.6c-4.2,0-7.6-3.4-7.6-7.6s3.4-7.6,7.6-7.6  C54.2,42.5,57.6,45.9,57.6,50.1z M50,80.1C34.4,80.1,21.5,68,20,53h16.7c1.4,6,6.8,10.6,13.2,10.6S61.9,59,63.2,53H80  C78.5,68,65.6,80.1,50,80.1z"/><text x="0" y="115" fill="#000000" font-size="5px" font-weight="bold" font-family="'Helvetica Neue', Helvetica, Arial-Unicode, Arial, Sans-serif">Created by Andrey Anashkin</text><text x="0" y="120" fill="#000000" font-size="5px" font-weight="bold" font-family="'Helvetica Neue', Helvetica, Arial-Unicode, Arial, Sans-serif">from the Noun Project</text></svg>