<svg xmlns="http://www.w3.org/2000/svg" xmlns:xlink="http://www.w3.org/1999/xlink" version="1.1" x="0px" y="0px" viewBox="0 0 100 125" enable-background="new 0 0 100 100" xml:space="preserve"><path d="M52.055,67.292c0.559,0,1.12-0.071,1.667-0.21c1.743-0.443,3.209-1.54,4.128-3.086s1.18-3.358,0.736-5.102  c-0.76-2.987-3.442-5.074-6.521-5.074c-0.559,0-1.12,0.071-1.667,0.21c-1.743,0.443-3.209,1.54-4.128,3.086s-1.18,3.358-0.736,5.102  C46.294,65.206,48.976,67.292,52.055,67.292z M47.13,57.627c0.782-1.317,2.03-2.25,3.515-2.628c0.466-0.119,0.943-0.179,1.419-0.179  c2.622,0,4.905,1.777,5.552,4.321c0.378,1.484,0.155,3.027-0.627,4.344c-0.782,1.317-2.03,2.25-3.515,2.628  c-0.466,0.119-0.943,0.179-1.419,0.179c-2.622,0-4.905-1.777-5.552-4.321C46.125,60.487,46.347,58.944,47.13,57.627z"/><path d="M19.268,44.926c-0.23,1.717,0.73,3.367,2.335,4.013c0.292,0.117,0.599,0.198,0.913,0.24c1.002,0.134,1.996-0.13,2.8-0.744  c0.803-0.613,1.319-1.503,1.454-2.505c0.23-1.717-0.73-3.368-2.335-4.013c-0.292-0.118-0.599-0.198-0.914-0.24  c-1.001-0.135-1.996,0.13-2.799,0.743C19.918,43.034,19.402,43.924,19.268,44.926z M21.063,42.867  c0.684-0.522,1.531-0.747,2.384-0.632c0.268,0.036,0.529,0.104,0.777,0.204c1.367,0.55,2.185,1.955,1.988,3.418  c-0.114,0.853-0.554,1.611-1.238,2.133s-1.531,0.747-2.384,0.633c-0.268-0.036-0.529-0.105-0.777-0.205  c-1.367-0.55-2.185-1.955-1.988-3.418C19.938,44.147,20.378,43.389,21.063,42.867z"/><path d="M75.565,43.127c0.292,0.117,0.599,0.198,0.913,0.24c1.002,0.134,1.996-0.13,2.8-0.744c0.803-0.613,1.319-1.503,1.454-2.505  c0.23-1.717-0.73-3.368-2.335-4.013c-0.292-0.118-0.599-0.198-0.914-0.24c-1.001-0.135-1.996,0.13-2.799,0.743  c-0.803,0.613-1.319,1.503-1.454,2.506C73,40.831,73.96,42.481,75.565,43.127z M73.787,39.188c0.114-0.853,0.554-1.611,1.238-2.133  s1.531-0.747,2.384-0.632c0.268,0.036,0.529,0.104,0.777,0.204c1.367,0.55,2.185,1.955,1.988,3.418  c-0.114,0.853-0.554,1.611-1.238,2.133s-1.531,0.747-2.384,0.633c-0.268-0.036-0.529-0.105-0.777-0.205  C74.408,42.056,73.591,40.651,73.787,39.188z"/><path d="M30.959,33.265c0.313,0.03,0.63,0.021,0.944-0.029c0.999-0.156,1.877-0.691,2.474-1.508  c0.596-0.815,0.838-1.816,0.683-2.815c-0.266-1.712-1.656-3.022-3.378-3.185c-0.313-0.03-0.63-0.02-0.944,0.029  c-0.999,0.155-1.876,0.691-2.473,1.507c-0.596,0.816-0.838,1.816-0.683,2.815C27.847,31.791,29.237,33.101,30.959,33.265z   M28.717,27.596c0.508-0.695,1.256-1.151,2.107-1.283c0.267-0.042,0.537-0.05,0.803-0.025c1.467,0.139,2.65,1.255,2.877,2.713  c0.133,0.85-0.074,1.702-0.582,2.397c-0.507,0.694-1.255,1.15-2.106,1.283c-0.267,0.042-0.538,0.049-0.804,0.024  c-1.466-0.139-2.649-1.254-2.876-2.713C28.003,29.142,28.209,28.291,28.717,27.596z"/><path d="M82.218,26.625c-1.078-0.434-2.215-0.733-3.377-0.888c-3.708-0.497-7.387,0.479-10.359,2.75  c-1.178,0.9-2.179,1.967-3.001,3.15c-0.934-5.41-4.963-9.861-10.428-11.204c-1.128-0.278-2.296-0.413-3.469-0.403  c-2.933,0.024-5.714,0.955-8.046,2.636c-2.191-3.932-6.202-6.669-10.884-7.113c-1.157-0.11-2.332-0.074-3.49,0.107  c-3.696,0.576-6.947,2.557-9.153,5.578c-2.15,2.945-3.053,6.534-2.564,10.138l-0.007,0l0.044,0.277l0.042,0.278l0.012-0.002  c0.034,0.193,0.086,0.379,0.128,0.569c-1.108,0.46-2.169,1.053-3.147,1.801c-2.898,2.213-4.783,5.398-5.336,8.992L9.176,43.29  l-0.037,0.279l-0.038,0.279l0.012,0.001c-0.712,6.252,2.815,12.217,8.668,14.571c1.078,0.434,2.215,0.732,3.377,0.888  c2.064,0.277,4.115,0.081,6.045-0.525c-0.172,2.464,0.021,4.964,0.598,7.433l-0.012,0.003l0.124,0.485l0.123,0.484l0.021-0.005  c2.978,10.794,12.76,18.297,23.984,18.297c2.068,0,4.143-0.261,6.166-0.776c6.45-1.642,11.875-5.697,15.274-11.418  c3.314-5.578,4.31-12.087,2.837-18.387l0.012-0.003l-0.124-0.485l-0.123-0.484l-0.021,0.005c-0.034-0.124-0.081-0.242-0.117-0.365  c3.425,0.259,6.783-0.718,9.535-2.82c2.898-2.213,4.783-5.398,5.336-8.992l0.007,0.001l0.037-0.279l0.038-0.278l-0.012-0.002  C91.598,34.943,88.071,28.979,82.218,26.625z M77.572,35.206c0.37,0.05,0.731,0.145,1.073,0.282c1.887,0.759,3.017,2.7,2.746,4.719  c-0.158,1.178-0.765,2.224-1.709,2.946c-0.945,0.721-2.113,1.031-3.292,0.874c-0.37-0.05-0.731-0.145-1.073-0.282  c-1.887-0.759-3.017-2.7-2.746-4.719c0.158-1.178,0.765-2.224,1.709-2.945C75.225,35.358,76.394,35.048,77.572,35.206z   M68.435,30.323c2.418-2.207,5.666-3.013,5.749-2.493c0.082,0.508-2.721,0.875-5.14,3.081c-2.418,2.206-3.07,5.132-3.619,4.908  C64.979,35.637,66.016,32.529,68.435,30.323z M63.598,38.472c0.008-0.121,0.012-0.241,0.026-0.362l8.361,1.121  c-0.011,0.14-0.016,0.279-0.015,0.418l-8.215-1.101C63.704,38.521,63.649,38.499,63.598,38.472z M75.355,55.143  c0.057,0.243,0.085,0.487,0.134,0.73l-14.567,3.708c-0.028-0.246-0.063-0.492-0.111-0.737L75.355,55.143z M56.706,34.273  l7.371-0.062c-0.058,0.139-0.119,0.277-0.172,0.418l-7.236,0.06C56.686,34.552,56.699,34.413,56.706,34.273z M56.56,35.252  l7.146-0.06c-0.245,0.74-0.44,1.501-0.562,2.287l-0.007-0.001l-0.037,0.279l-0.038,0.279l0.012,0.001  c-0.007,0.059-0.007,0.117-0.013,0.175c-2.113-1.043-4.38-1.806-6.76-2.215C56.406,35.755,56.496,35.508,56.56,35.252z   M48.143,39.349c0.153,0.92-4.928,1.612-9.295,5.637c-4.367,4.024-5.523,9.339-6.521,8.938c-0.811-0.326,1.042-5.975,5.409-9.999  C42.104,39.9,47.986,38.408,48.143,39.349z M39.282,39.16c-0.487-1.183-0.816-2.443-0.95-3.756l8.53-0.071  c0.075,0.278,0.18,0.542,0.299,0.8c-0.417,0.084-0.834,0.172-1.249,0.277C43.547,37.012,41.323,37.945,39.282,39.16z M45.253,56.513  c1.08-1.818,2.804-3.106,4.853-3.628c0.643-0.164,1.302-0.247,1.959-0.247c3.62,0,6.772,2.453,7.667,5.966  c0.521,2.049,0.214,4.179-0.866,5.997c-1.08,1.818-2.804,3.106-4.853,3.628c-0.643,0.164-1.302,0.247-1.959,0.247  c-3.62,0-6.772-2.453-7.667-5.966C43.866,60.46,44.173,58.331,45.253,56.513z M48.478,34.06c-0.008-0.86,0.321-1.673,0.924-2.286  c0.604-0.614,1.41-0.956,2.271-0.962c0.27-0.002,0.539,0.029,0.798,0.092c1.431,0.352,2.438,1.627,2.45,3.104  c0.006,0.628-0.172,1.228-0.5,1.746c-0.773-0.073-1.554-0.119-2.343-0.119c-1.017,0-2.034,0.064-3.047,0.19  C48.689,35.313,48.483,34.709,48.478,34.06z M56.149,33.996c0.005,0.677-0.154,1.324-0.434,1.919  c-0.232-0.034-0.467-0.06-0.701-0.088c0.302-0.556,0.476-1.175,0.47-1.826c-0.014-1.732-1.197-3.231-2.878-3.644  c-0.305-0.075-0.621-0.112-0.938-0.109c-1.01,0.008-1.957,0.41-2.667,1.13c-0.708,0.721-1.094,1.675-1.085,2.686  c0.005,0.669,0.189,1.301,0.505,1.852c-0.23,0.034-0.459,0.068-0.688,0.108c-0.298-0.594-0.476-1.256-0.481-1.955  c-0.01-1.188,0.444-2.309,1.277-3.157c0.833-0.848,1.947-1.32,3.135-1.33c0.373-0.003,0.744,0.04,1.103,0.128  C54.74,30.197,56.132,31.959,56.149,33.996z M46.382,22.374c2.952-1.415,6.293-1.25,6.224-0.729c-0.068,0.51-2.858,0.052-5.81,1.467  c-2.952,1.415-4.42,4.028-4.881,3.656C41.54,26.466,43.429,23.789,46.382,22.374z M46.699,34.356  c0.009,0.141,0.024,0.279,0.044,0.416l-8.451,0.071c-0.008-0.139-0.025-0.277-0.029-0.417L46.699,34.356z M38.781,28.618  c-0.061,0.147-0.108,0.299-0.165,0.447l-2.286,0.356c-0.002-0.139-0.009-0.278-0.023-0.418L38.781,28.618z M38.4,29.667  c-0.438,1.342-0.683,2.753-0.699,4.202l-0.007,0l0.003,0.281l0.001,0.282l0.012,0c0.05,1.771,0.439,3.467,1.096,5.031  c-0.851,0.533-1.659,1.126-2.438,1.759c-0.83-2.645-2.438-4.996-4.626-6.74c0.117-0.01,0.234-0.015,0.35-0.033  c1.322-0.206,2.485-0.915,3.275-1.996c0.535-0.732,0.852-1.579,0.938-2.458L38.4,29.667z M34.913,32.121  c-0.701,0.959-1.733,1.588-2.908,1.771c-0.332,0.051-0.667,0.061-0.999,0.038c-0.847-0.587-1.762-1.096-2.75-1.493  c-0.12-0.048-0.247-0.077-0.368-0.122c-0.492-0.599-0.838-1.325-0.964-2.133c-0.183-1.174,0.103-2.349,0.803-3.309  c0.701-0.961,1.733-1.59,2.908-1.772c0.369-0.058,0.742-0.069,1.109-0.034c2.025,0.192,3.659,1.732,3.972,3.745  C35.899,29.986,35.614,31.16,34.913,32.121z M31.305,46.822c-0.085,0.129-0.172,0.255-0.255,0.386l-3.205-0.429  c0.037-0.134,0.07-0.27,0.096-0.407L31.305,46.822z M27.429,46.019c-0.158,1.178-0.765,2.224-1.709,2.946  c-0.945,0.721-2.113,1.031-3.292,0.874c-0.37-0.05-0.731-0.145-1.073-0.282c-1.887-0.759-3.017-2.7-2.746-4.719  c0.158-1.178,0.765-2.224,1.709-2.945c0.945-0.722,2.113-1.032,3.292-0.874c0.37,0.05,0.731,0.145,1.073,0.282  C26.57,42.06,27.699,44,27.429,46.019z M26.998,32.021c-0.485-0.144-0.979-0.255-1.479-0.345l1.205-0.188  C26.804,31.672,26.897,31.849,26.998,32.021z M29.335,16.712c3.243-0.443,6.374,0.736,6.148,1.212  c-0.221,0.464-2.737-0.825-5.98-0.382c-3.243,0.443-5.441,2.481-5.766,1.986C23.474,19.125,26.092,17.154,29.335,16.712z   M26.419,30.544c0.029,0.138,0.064,0.272,0.104,0.405l-3.092,0.482c-1.736-0.055-3.444,0.219-5.058,0.789l-0.2,0.031  c-0.028-0.137-0.065-0.271-0.09-0.409L26.419,30.544z M19.825,33.007c3.177-0.788,6.416,0.05,6.242,0.547  c-0.17,0.485-2.809-0.527-5.986,0.261c-3.177,0.787-5.145,3.049-5.521,2.591C14.255,36.034,16.647,33.794,19.825,33.007z   M9.661,43.922l8.361,1.121c-0.011,0.14-0.016,0.279-0.015,0.418l-8.376-1.122C9.643,44.2,9.646,44.061,9.661,43.922z   M27.252,58.178c-1.915,0.637-3.96,0.849-6.019,0.573c-1.116-0.149-2.208-0.437-3.242-0.853c-5.309-2.136-8.626-7.365-8.4-12.999  l8.455,1.133c0.215,1.781,1.374,3.351,3.098,4.045c0.386,0.155,0.793,0.263,1.209,0.318c1.326,0.178,2.643-0.172,3.707-0.984  c0.721-0.551,1.265-1.271,1.598-2.091l3.047,0.408c-0.021,0.035-0.046,0.065-0.066,0.1C28.729,51.042,27.594,54.564,27.252,58.178z   M29.01,66.94l14.545-3.702c0.075,0.239,0.16,0.472,0.253,0.7l-14.571,3.709C29.164,67.41,29.077,67.181,29.01,66.94z   M72.621,72.774c-3.263,5.492-8.47,9.384-14.662,10.96c-1.942,0.494-3.934,0.745-5.918,0.745c-10.18,0-19.129-6.429-22.497-15.879  l14.709-3.744c1.538,2.797,4.493,4.619,7.8,4.619c0.74,0,1.482-0.093,2.206-0.278c2.308-0.587,4.249-2.039,5.466-4.086  c0.825-1.388,1.244-2.938,1.25-4.512l14.695-3.741C76.541,62.354,75.499,67.93,72.621,72.774z M85.14,50.299  c-2.703,2.064-6.014,2.998-9.38,2.688c-1.863-5.845-5.738-10.645-10.746-13.703l6.995,0.937c0.215,1.781,1.374,3.351,3.098,4.045  c0.386,0.155,0.793,0.263,1.209,0.318c1.326,0.178,2.643-0.172,3.707-0.984c0.721-0.551,1.265-1.271,1.598-2.091l8.447,1.132  C89.369,45.688,87.656,48.377,85.14,50.299z M90.18,42.088l-8.373-1.122c0.037-0.134,0.07-0.27,0.096-0.407l8.36,1.12  C90.242,41.818,90.206,41.952,90.18,42.088z"/></svg>