<svg xmlns="http://www.w3.org/2000/svg" xmlns:xlink="http://www.w3.org/1999/xlink" version="1.1" x="0px" y="0px" viewBox="0 0 100 125" style="enable-background:new 0 0 100 100;" xml:space="preserve"><style type="text/css">
	.st0{fill:none;stroke:#000000;stroke-width:6;stroke-miterlimit:10;}
	.st1{stroke:#000000;stroke-width:6;stroke-miterlimit:10;}
	.st2{fill:none;stroke:#000000;stroke-width:6;stroke-linejoin:bevel;stroke-miterlimit:10;}
</style><path d="M33.5,47.3c3.1,0,5.6,2.5,5.6,5.6c0,3.1-2.5,5.6-5.6,5.6c-3.1,0-5.6-2.5-5.6-5.6C27.9,49.8,30.4,47.3,33.5,47.3z M52.1,59  h-3.9c-0.7,0-1.1,0.6-0.6,1.1l1.9,2.3c0.3,0.4,0.9,0.4,1.3,0l2-2.2C53.1,59.7,52.8,59,52.1,59z M80,42.1c2.3,4.3,3.8,9,4.4,13.6  c1.2,9.5-1.7,18.3-8.1,24.7C69.9,86.8,61,91,50,91v-0.4V91c0,0,0,0,0,0h-0.1C39.5,91,30,87,23.6,80.6c-6.4-6.4-9.2-15.3-8-24.8  c0.6-4.6,2.1-9.3,4.4-13.6C6.9,31.9,5.8,14,5.7,13.2L5.5,9.3l3.8,0.8c0.9,0.2,20.4,4.3,27.4,14.9c4.2-2.2,9.3-3.4,13.3-3.4v6  c-6,0-12.6,2.9-18.1,8.3c-5.7,5.7-9.4,13.1-10.3,20.5c-0.2,1.9-0.3,4.1-0.1,6.4c4.5,0.3,8.1,4.1,8.1,8.7c0,1.8-0.5,3.4-1.5,4.8  c5.3,5.2,13.2,8.1,21.9,8.1c8.6,0,16.6-3,21.9-8.1c-0.9-1.4-1.5-3-1.5-4.8c0-4.6,3.5-8.4,8-8.7c0.3-2.3,0.2-4.5-0.1-6.4  c-0.9-7.3-4.6-14.8-10.3-20.5C62.7,30.5,57,27.6,50,27.6v-6c5,0,9.1,1.2,13.4,3.4c7-10.6,26.5-14.7,27.4-14.9l3.8-0.8l-0.2,3.9  C94.2,14,93.1,31.8,80,42.1z M23.2,36.9c1.3-1.9,2.8-3.6,4.5-5.3c1.3-1.3,2.6-2.4,3.9-3.5c-2.6-3.9-8-6.9-13.1-9  c-0.9,2.4-1.9,5-2.8,7.8C17.3,30.5,19.8,34.1,23.2,36.9z M76.8,36.9c3.5-2.9,5.9-6.4,7.6-10c-0.9-2.7-1.9-5.3-2.8-7.8  c-5.2,2.1-10.6,5.1-13.1,9c1.3,1,2.7,2.2,3.9,3.5C74,33.3,75.5,35.1,76.8,36.9z M72.1,52.9c0-3.1-2.5-5.6-5.6-5.6s-5.6,2.5-5.6,5.6  c0,3.1,2.5,5.6,5.6,5.6S72.1,56,72.1,52.9z M50,66.4c0,0-2.9,3.1-7.1,3.1c0,3.9,3.2,13.1,7.1,13.1s7.1-9.2,7.1-13.1  C52.9,69.4,50,66.4,50,66.4z"/></svg>