<svg xmlns="http://www.w3.org/2000/svg" xmlns:xlink="http://www.w3.org/1999/xlink" version="1.1" preserveAspectRatio="none" x="0px" y="0px" viewBox="0 0 100 125"><defs><g id="a"><path fill="#000000" stroke="none" d=" M 82.8 25.35 Q 82.62265625 25.1103515625 82.35 25 82.066796875 24.905859375 81.75 24.95 81.4990234375 25.0421875 81.3 25.25 81.23359375 25.3044921875 81.15 25.35 69.6904296875 33.599609375 59.7 43.5 59.6294921875 43.570703125 59.55 43.65 59.5244140625 43.7244140625 59.45 43.8 59.203515625 44.040234375 59.15 44.35 59.1060546875 44.7076171875 59.25 45 60.5517578125 47.2265625 60.55 50 60.55390625 54.293359375 57.5 57.4 57.45 57.45 57.4 57.5 54.397265625 60.5013671875 50.35 60.55 50.2 60.55 50.1 60.55 49.91640625 60.55 49.75 60.55 47.62265625 60.5109375 45.8 59.7 45.548046875 59.572265625 45.25 59.6 44.9943359375 59.6400390625 44.75 59.8 44.5474609375 60.006640625 44.45 60.25 44.43046875 60.30390625 44.4 60.35 35.7423828125 71.115234375 28.25 83.4 27.8890625 83.860546875 28 84.15 27.9998046875 84.4017578125 28.1 84.6 28.25390625 84.8564453125 28.45 85 38.0076171875 90.996875 50 91 67.0111328125 90.9958984375 79 79 90.9958984375 67.0111328125 91 50 90.9994140625 35.9580078125 82.8 25.35 M 81.8 27.35 Q 89.000390625 37.1921875 89 50 89.0041015625 66.1888671875 77.6 77.6 66.1888671875 89.0041015625 50 89 39.1259765625 89.0029296875 30.35 83.8 37.5283203125 72.1095703125 45.75 61.8 47.6228515625 62.4978515625 49.7 62.55 L 49.75 62.55 Q 49.9 62.55 50.1 62.55 50.2 62.55 50.35 62.55 55.202734375 62.4986328125 58.8 58.9 58.85 58.85 58.9 58.8 62.5458984375 55.106640625 62.55 50 62.5482421875 47.066015625 61.35 44.65 70.90625 35.241015625 81.8 27.35 M 50 43.35 Q 47.3 43.35 45.3 45.3 43.35 47.3 43.35 50 43.35 52.75 45.3 54.7 L 45.35 54.75 Q 45.5 54.9 45.7 55.1 47.5 56.6 49.9 56.7 L 50.2 56.7 Q 52.8 56.6 54.7 54.7 56.7 52.75 56.7 50 56.7 47.3 54.75 45.35 L 54.6 45.2 Q 52.7 43.35 50 43.35 M 50.2 10 L 49.9 10 Q 33.35 10.1 21.7 21.7 10 33.4 10 50 10 66.6 21.7 78.3 L 21.75 78.35 Q 22.7 79.2 23.6 80.15 31.2 67.6 40 56.75 40.2 56.5 40.4 56.35 38.5 53.55 38.5 50 38.5 45.35 41.8 41.95 L 41.95 41.8 Q 45.35 38.5 50 38.5 53 38.5 55.4 39.8 55.55 39.6 55.75 39.5 65.95 29.35 77.55 20.95 66.15 10.1 50.2 10 Z"/></g></defs><g transform="matrix( 1, 0, 0, 1, 0,0) "><use xlink:href="#a"/></g></svg>