<svg xmlns="http://www.w3.org/2000/svg" xmlns:xlink="http://www.w3.org/1999/xlink" version="1.1" x="0px" y="0px" viewBox="0 0 100 125" enable-background="new 0 0 100 100" xml:space="preserve"><ellipse transform="matrix(-0.4261 0.9047 -0.9047 -0.4261 115.213 16.5922)" cx="52.344" cy="44.84" rx="0.908" ry="0.452"/><ellipse transform="matrix(0.3385 0.941 -0.941 0.3385 73.1563 -14.3847)" cx="46.809" cy="44.839" rx="0.907" ry="0.453"/><path d="M57.444,35.069c-0.128,2.261-0.162,4.209,0.729,5.151c0.376,0.399,0.9,0.601,1.558,0.601c0.488,0,1.052-0.106,1.722-0.325  c1.948-0.636,3.561-1.488,3.561-5.487c0-4.006-1.729-7.265-3.854-7.265C59.062,27.744,57.708,30.414,57.444,35.069z M62.439,30.784  c0,1.09-0.695,1.973-1.552,1.973s-1.552-0.883-1.552-1.973s0.695-1.974,1.552-1.974S62.439,29.694,62.439,30.784z M61.254,39.889  c-1.291,0.421-2.145,0.394-2.617-0.107c-0.402-0.426-0.564-1.21-0.608-2.177c0.354-0.081,0.729-0.234,1.105-0.432  c0.147,0.56,0.484,0.965,0.926,1.033c0.703,0.108,1.407-0.678,1.571-1.756c0.051-0.331,0.045-0.651-0.009-0.938  c1.199-0.824,2.103-1.35,2.609-2.393c0.09,0.591,0.143,1.221,0.143,1.89C64.374,38.593,63.081,39.292,61.254,39.889z"/><path d="M57.335,28.819c0.077,0,0.154-0.028,0.216-0.085l2.768-2.554c0.129-0.12,0.137-0.322,0.018-0.451s-0.322-0.137-0.451-0.018  l-2.767,2.554c-0.13,0.12-0.138,0.322-0.019,0.451C57.162,28.785,57.248,28.819,57.335,28.819z"/><path d="M37.641,40.496c0.67,0.219,1.233,0.325,1.722,0.325l0,0c0.657,0,1.182-0.202,1.559-0.601c0.89-0.942,0.856-2.89,0.728-5.151  c-0.264-4.655-1.617-7.325-3.714-7.325c-2.125,0-3.854,3.259-3.854,7.265C34.08,39.007,35.693,39.859,37.641,40.496z M38.205,28.81  c0.856,0,1.552,0.884,1.552,1.974s-0.695,1.973-1.552,1.973s-1.552-0.883-1.552-1.973S37.349,28.81,38.205,28.81z M34.861,33.119  c0.507,1.042,1.41,1.569,2.609,2.393c-0.054,0.288-0.06,0.607-0.009,0.938c0.165,1.078,0.868,1.864,1.571,1.756  c0.441-0.068,0.778-0.473,0.926-1.033c0.376,0.197,0.751,0.351,1.105,0.432c-0.044,0.967-0.206,1.751-0.608,2.177  c-0.255,0.27-0.612,0.401-1.094,0.401l0,0c-0.415,0-0.927-0.099-1.523-0.293c-1.827-0.597-3.12-1.296-3.12-4.88  C34.719,34.34,34.771,33.71,34.861,33.119z"/><path d="M41.542,28.734c0.062,0.057,0.139,0.085,0.217,0.085c0.086,0,0.172-0.035,0.234-0.103c0.119-0.129,0.111-0.332-0.018-0.451  l-2.768-2.554c-0.129-0.119-0.332-0.111-0.451,0.018s-0.111,0.332,0.019,0.451L41.542,28.734z"/><path d="M82.436,52.355c2.477-1.011-3.416-5.206-9.758-7.885c-2.297-0.97-4.708-1.133-6.646-0.678  c-0.197-0.167-0.398-0.33-0.604-0.49c2.017-2.552,3.098-5.833,3.098-9.734c0-11.033-8.396-20.008-18.718-20.008  S31.09,22.535,31.09,33.567c0,3.903,1.082,7.185,3.101,9.736c-0.179,0.14-0.357,0.279-0.53,0.423  c-1.882-0.37-4.161-0.177-6.338,0.743c-6.342,2.68-12.235,6.875-9.759,7.885c0.438,0.178-1.31,1.016-1.162,1.516  c0.456,1.552,5.074,2.691,11.025,2.228c0,0.002,0,0.003,0,0.005c0,3.529,1.285,6.817,3.493,9.589  c0.388,0.646,0.831,1.27,1.328,1.866c-0.732,0.708-2.625,2.742-2.844,5.054c-0.272,2.874,0,9.152,0,9.152s-2.361,2.203-2.351,2.878  c0.015,0.968,1.227,1.379,1.759,1.379s-0.349,0.944,0.592,1.277c1.438,0.51,5.106-0.963,5.053-0.537  c-0.053,0.425,0.422,0.856,2.019,0.537c1.596-0.319,4.624-1.918,4.921-2.341c0.432-0.613,0.239-2.98,0-4.896  c-0.214-1.72,1.563-4.807,1.159-6.192c1.178,0.329,2.409,0.582,3.688,0.748c0.463,0.061,0.961,0.364,1.488,0.687  c0.66,0.403,1.342,0.82,2.076,0.82c0.655,0,1.254-0.405,1.833-0.797c0.464-0.314,0.903-0.611,1.303-0.657  c0.138-0.016,0.273-0.036,0.411-0.054c0.006,0,0.013,0,0.019-0.001v-0.001c1.47-0.192,2.9-0.502,4.269-0.923  c-0.638,1.28,1.315,4.573,1.092,6.371c-0.239,1.916-0.432,4.282-0.001,4.896c0.298,0.423,3.326,2.022,4.922,2.341  c1.597,0.319,2.071-0.112,2.018-0.537c-0.053-0.426,3.615,1.047,5.054,0.537c0.94-0.333,0.06-1.277,0.592-1.277  c0.531,0,1.744-0.412,1.758-1.379c0.011-0.675-2.35-2.878-2.35-2.878s0.272-6.279,0-9.152c-0.271-2.874-3.134-5.322-3.134-5.322  s-0.013,0.006-0.031,0.015c0.399-0.498,0.757-1.012,1.077-1.538c2.246-2.787,3.552-6.103,3.552-9.664  c0-0.013-0.002-0.025-0.002-0.038c6.137,0.543,10.945-0.61,11.411-2.195C83.745,53.371,81.998,52.533,82.436,52.355z M65.927,54.424  l-0.31-0.107c-0.182,0.525-3.319,8.22-3.76,9.3c-2.197,0.878-5.948,1.896-11.556,1.933v-11.6c4.798-0.02,9.645-0.487,13.43-1.333  C64.298,53.296,65.023,53.909,65.927,54.424z M63.229,69.403c-1.005,0.573-3.127,2.099-4.506,3.244  c-1.684,0.628-3.504,1.083-5.423,1.334c-0.986,0.041-1.991,0.059-2.998,0.063v-7.854c4.492-0.03,8.507-0.694,11.653-1.927  l2.451,4.526C63.955,69.012,63.538,69.227,63.229,69.403z M45.477,46.675c0.266,0.145,0.525,0.276,0.798,0.396  c0.144,0.064,0.287,0.129,0.438,0.183c0.149,0.054,0.294,0.117,0.447,0.164l0.459,0.141c0.156,0.038,0.316,0.07,0.475,0.104  c0.156,0.042,0.328,0.042,0.494,0.06l0.125,0.01l0.062,0.005l0.031,0.002l0.016,0.001l0.037-0.002l0.229-0.017  c0.156-0.015,0.302-0.013,0.47-0.05l0.489-0.09c0.156-0.036,0.307-0.081,0.461-0.121c0.152-0.038,0.304-0.084,0.452-0.133  c0.586-0.182,1.149-0.396,1.716-0.636c1.056-0.123,2.104-0.275,3.154-0.445c0.532-0.088,1.063-0.177,1.594-0.299  c0.266-0.06,0.529-0.111,0.8-0.2c0.275-0.075,0.525-0.173,0.772-0.272l1.496-0.594c0.499-0.197,0.997-0.398,1.493-0.604  c0.907-0.375,1.816-0.742,2.72-1.128c-1.172,1.404-2.656,2.563-4.42,3.462c-2.921,1.334-6.23,2.083-9.663,2.185  c-0.269,0.006-0.539,0.013-0.813,0.013s-0.544-0.006-0.813-0.013c-3.432-0.103-6.741-0.851-9.662-2.185  c-1.609-0.82-2.982-1.859-4.102-3.102c0.357,0.165,0.714,0.332,1.076,0.486l1.26,0.548l1.268,0.532  c0.213,0.085,0.422,0.178,0.639,0.255l0.649,0.239l0.65,0.239c0.06,0.02,0.098,0.039,0.175,0.06l0.166,0.04l0.334,0.08l0.667,0.161  c0.22,0.06,0.453,0.087,0.681,0.131c0.456,0.077,0.918,0.17,1.372,0.224C44.603,46.565,45.038,46.626,45.477,46.675z M49.982,53.313  c-5.321,0-9.874-0.486-13.31-1.23c0.968-1.415,1.322-3.054,1.203-4.656c-0.005-0.059-0.014-0.115-0.021-0.172  c0.207-0.114,0.416-0.227,0.63-0.335c0.053,0.026,0.107,0.05,0.161,0.076c2.773,1.499,6.252,2.34,10.331,2.44  c0.275,0.008,0.553,0.013,0.831,0.013s0.556-0.005,0.832-0.013c4.079-0.101,7.558-0.942,10.332-2.441  c0.053-0.025,0.106-0.049,0.159-0.075c0.339,0.172,0.67,0.352,0.991,0.538c-0.112,1.59,0.242,3.215,1.2,4.619  C59.884,52.825,55.32,53.313,49.982,53.313z M33.063,67.531c-2.118-2.38-3.34-5.229-3.34-8.269c0-1.199,0.193-2.377,0.563-3.515  c1.244-0.233,2.317-0.583,3.229-1.028l4.148,9.605l-2.205,4.333C34.589,68.232,33.638,67.793,33.063,67.531z M38.251,64.073  l-4.156-9.624l-0.313,0.135c1.037-0.544,1.856-1.213,2.481-1.961c3.781,0.842,8.615,1.307,13.4,1.327v11.598  C45.469,65.523,41.532,65.018,38.251,64.073z M49.808,14.198c9.969,0,18.079,8.689,18.079,19.37c0,3.85-1.101,7.072-3.155,9.549  c-0.949,0.295-1.893,0.61-2.838,0.917c-0.511,0.165-1.02,0.335-1.527,0.508l-1.523,0.518l-0.38,0.132  c-0.126,0.043-0.25,0.066-0.374,0.101c-0.242,0.071-0.507,0.112-0.767,0.161c-0.258,0.051-0.522,0.089-0.786,0.127  c-0.263,0.041-0.525,0.083-0.791,0.118c-1.057,0.15-2.122,0.265-3.183,0.387l-0.045,0.005l-0.045,0.019  c-0.551,0.23-1.126,0.443-1.701,0.616c-0.143,0.047-0.287,0.089-0.433,0.124l-0.433,0.111l-0.417,0.082  c-0.132,0.035-0.296,0.036-0.446,0.052l-0.229,0.019l-0.189-0.016c-0.14-0.016-0.279-0.009-0.421-0.048l-0.427-0.09l-0.424-0.127  c-0.142-0.042-0.28-0.101-0.42-0.15c-0.141-0.048-0.277-0.11-0.416-0.167c-0.275-0.113-0.551-0.246-0.808-0.379l-0.061-0.031  L45.594,46.1c-0.451-0.04-0.903-0.093-1.356-0.144c-0.455-0.045-0.893-0.122-1.342-0.176c-0.224-0.034-0.447-0.05-0.671-0.102  l-0.673-0.135l-0.337-0.068l-0.168-0.034c-0.034-0.007-0.103-0.032-0.152-0.046l-0.649-0.201l-0.65-0.201  c-0.218-0.064-0.432-0.147-0.648-0.22l-1.299-0.438l-2.443-0.852c-2.259-2.522-3.476-5.872-3.476-9.916  C31.729,22.887,39.839,14.198,49.808,14.198z M41.793,72.975c-1.332-1.161-3.788-2.942-4.893-3.572  c-0.237-0.135-0.537-0.293-0.868-0.46l2.152-4.23c3.316,0.942,7.27,1.45,11.479,1.475v7.858c-1.132-0.004-2.262-0.03-3.365-0.081  v0.017C44.718,73.774,43.211,73.431,41.793,72.975z M51.282,74.8c-0.499,0.338-1.016,0.688-1.475,0.688  c-0.554,0-1.158-0.37-1.743-0.727c-0.057-0.034-0.112-0.068-0.169-0.102c0.693,0.018,1.39,0.028,2.087,0.028  c0.497,0,0.994-0.006,1.49-0.015C51.409,74.714,51.346,74.757,51.282,74.8z M64.695,68.646l0.279-0.151l-2.52-4.652  c0.463-1.137,3.442-8.442,3.747-9.267c0.874,0.461,1.903,0.834,3.102,1.091c0.387,1.163,0.59,2.369,0.59,3.596  c0,3.219-1.419,6.25-3.831,8.731C65.628,68.197,65.153,68.422,64.695,68.646z"/><text x="0" y="115" fill="#000000" font-size="5px" font-weight="bold" font-family="'Helvetica Neue', Helvetica, Arial-Unicode, Arial, Sans-serif">Created by See Link</text><text x="0" y="120" fill="#000000" font-size="5px" font-weight="bold" font-family="'Helvetica Neue', Helvetica, Arial-Unicode, Arial, Sans-serif">from the Noun Project</text></svg>